<svg xmlns="http://www.w3.org/2000/svg" xmlns:xlink="http://www.w3.org/1999/xlink" width="500" zoomAndPan="magnify" viewBox="0 0 375 374.999991" height="500" preserveAspectRatio="xMidYMid meet" version="1.0"><defs><clipPath id="dffb75ad43"><path d="M 0 17.085938 L 370.5 17.085938 L 370.5 374.835938 L 0 374.835938 Z M 0 17.085938 " clip-rule="nonzero"/></clipPath></defs><rect x="-37.5" width="450" fill="#ffffff" y="-37.499999" height="449.999989" fill-opacity="1"/><rect x="-37.5" width="450" fill="#ffffff" y="-37.499999" height="449.999989" fill-opacity="1"/><g clip-path="url(#dffb75ad43)"><path fill="#000000" d="M 364.488281 48.8125 L 347.542969 48.8125 L 347.542969 28.996094 L 364.488281 28.996094 C 367.777344 28.996094 370.441406 26.335938 370.441406 23.039062 C 370.441406 19.753906 367.785156 17.085938 364.488281 17.085938 L 199.777344 17.085938 C 196.492188 17.085938 193.824219 19.742188 193.824219 23.039062 C 193.824219 26.328125 196.480469 28.996094 199.777344 28.996094 L 216.796875 28.996094 L 216.796875 48.8125 L 199.777344 48.8125 C 196.492188 48.8125 193.824219 51.472656 193.824219 54.769531 L 193.824219 179.441406 L 20.652344 179.441406 C 15.125 179.441406 10.078125 181.46875 6.363281 184.691406 C 2.511719 188.125 0.0585938 192.953125 0.0585938 198.277344 L 0.0585938 208.714844 C 0.0585938 214.039062 2.4375 218.871094 6.363281 222.300781 C 8.476562 224.132812 11.050781 225.511719 13.863281 226.421875 L 20.363281 272.511719 C 23.097656 292.050781 34.578125 309.769531 50.828125 322.519531 C 64.117188 332.921875 80.671875 340.003906 98.238281 342.191406 L 98.238281 368.890625 C 98.238281 372.179688 100.894531 374.84375 104.191406 374.84375 L 129.40625 374.84375 C 132.691406 374.84375 135.359375 372.1875 135.359375 368.890625 L 135.359375 342.980469 L 193.832031 342.980469 L 193.832031 368.824219 C 193.832031 372.113281 196.492188 374.78125 199.789062 374.78125 L 364.496094 374.78125 C 367.785156 374.78125 370.453125 372.121094 370.453125 368.824219 L 370.453125 54.769531 C 370.441406 51.472656 367.785156 48.8125 364.488281 48.8125 Z M 335.636719 48.8125 L 307.902344 48.8125 L 307.902344 28.996094 L 335.636719 28.996094 Z M 296.003906 48.8125 L 268.347656 48.8125 L 268.347656 28.996094 L 296.003906 28.996094 Z M 228.707031 28.996094 L 256.4375 28.996094 L 256.4375 48.8125 L 228.707031 48.8125 Z M 12.03125 198.277344 C 12.03125 196.527344 12.875 194.914062 14.269531 193.65625 C 15.882812 192.257812 18.199219 191.339844 20.714844 191.339844 L 193.824219 191.339844 L 193.824219 215.640625 L 20.714844 215.640625 C 18.125 215.640625 15.882812 214.796875 14.269531 213.324219 C 12.875 212.128906 12.03125 210.453125 12.03125 208.703125 Z M 123.453125 362.9375 L 110.144531 362.9375 L 110.144531 342.980469 L 123.453125 342.980469 Z M 130.101562 331.070312 C 129.859375 331.042969 129.65625 330.929688 129.40625 330.929688 L 106.367188 330.929688 C 88.46875 330.21875 71.414062 323.59375 58.117188 313.140625 C 44.253906 302.285156 34.449219 287.292969 32.132812 270.910156 L 26.03125 227.558594 L 193.832031 227.558594 L 193.832031 331.078125 L 130.101562 331.078125 Z M 358.609375 362.871094 L 347.542969 362.871094 L 347.542969 211.863281 C 347.542969 208.574219 344.886719 205.90625 341.589844 205.90625 C 338.292969 205.90625 335.636719 208.566406 335.636719 211.863281 L 335.636719 362.871094 L 317.847656 362.871094 L 317.847656 259.628906 C 317.847656 256.34375 315.191406 253.675781 311.894531 253.675781 C 308.597656 253.675781 305.941406 256.332031 305.941406 259.628906 L 305.941406 362.871094 L 205.804688 362.871094 L 205.804688 60.722656 L 216.796875 60.722656 L 216.796875 75.570312 C 216.796875 78.855469 219.453125 81.523438 222.75 81.523438 C 226.039062 81.523438 228.707031 78.867188 228.707031 75.570312 L 228.707031 60.722656 L 256.4375 60.722656 L 256.4375 75.570312 C 256.4375 78.855469 259.09375 81.523438 262.390625 81.523438 C 265.6875 81.523438 268.34375 78.867188 268.34375 75.570312 L 268.34375 60.722656 L 296.003906 60.722656 L 296.003906 75.570312 C 296.003906 78.855469 298.660156 81.523438 301.957031 81.523438 C 305.253906 81.523438 307.910156 78.867188 307.910156 75.570312 L 307.910156 60.722656 L 335.644531 60.722656 L 335.644531 75.570312 C 335.644531 78.855469 338.300781 81.523438 341.597656 81.523438 C 344.894531 81.523438 347.550781 78.867188 347.550781 75.570312 L 347.550781 60.722656 L 358.617188 60.722656 L 358.617188 362.871094 Z M 33.882812 94.480469 L 48.308594 94.480469 L 48.308594 149.953125 C 48.308594 153.242188 50.96875 155.90625 54.261719 155.90625 L 103.773438 155.90625 C 107.0625 155.90625 109.730469 153.25 109.730469 149.953125 L 109.730469 142.246094 L 138.089844 142.246094 C 141.378906 142.246094 144.042969 139.589844 144.042969 136.292969 L 144.042969 94.480469 L 153.007812 94.480469 C 156.296875 94.480469 158.960938 91.820312 158.960938 88.523438 C 158.960938 85.238281 156.304688 82.570312 153.007812 82.570312 L 143.71875 82.570312 C 143.007812 77.503906 140.738281 72.957031 137.320312 69.539062 C 133.191406 65.410156 127.453125 62.816406 121.144531 62.816406 C 120.996094 62.816406 120.867188 62.890625 120.730469 62.898438 L 120.730469 62.816406 L 71.207031 62.816406 C 64.902344 62.816406 59.160156 65.410156 55.03125 69.464844 C 51.605469 72.949219 49.335938 77.523438 48.632812 82.5625 L 33.882812 82.5625 C 30.597656 82.5625 27.929688 85.21875 27.929688 88.515625 C 27.929688 91.820312 30.585938 94.480469 33.882812 94.480469 Z M 132.136719 130.339844 L 109.730469 130.339844 L 109.730469 94.480469 L 132.136719 94.480469 Z M 120.71875 74.726562 L 120.71875 74.644531 C 120.867188 74.652344 120.988281 74.726562 121.136719 74.726562 C 124.144531 74.726562 126.953125 75.984375 128.914062 78.015625 C 130.144531 79.246094 131.054688 80.828125 131.589844 82.570312 L 110.238281 82.570312 C 110.757812 80.828125 111.664062 79.238281 112.949219 77.949219 C 114.90625 75.984375 117.710938 74.726562 120.71875 74.726562 Z M 60.21875 85.726562 C 60.21875 82.71875 61.410156 79.988281 63.441406 77.957031 C 65.402344 75.996094 68.199219 74.734375 71.207031 74.734375 L 100.617188 74.734375 C 98.792969 78.023438 97.746094 81.8125 97.820312 85.726562 L 97.820312 88.183594 C 97.8125 88.304688 97.746094 88.40625 97.746094 88.535156 C 97.746094 88.65625 97.8125 88.757812 97.820312 88.886719 L 97.820312 135.960938 C 97.8125 136.078125 97.746094 136.183594 97.746094 136.3125 C 97.746094 136.441406 97.8125 136.535156 97.820312 136.664062 L 97.820312 144.015625 L 60.21875 144.015625 Z M 60.21875 85.726562 " fill-opacity="1" fill-rule="nonzero"/></g></svg>