<svg xmlns="http://www.w3.org/2000/svg" xmlns:xlink="http://www.w3.org/1999/xlink" width="500" zoomAndPan="magnify" viewBox="0 0 375 374.999991" height="500" preserveAspectRatio="xMidYMid meet" version="1.0"><defs><clipPath id="2662698790"><path d="M 0 14.226562 L 371.25 14.226562 L 371.25 374.976562 L 0 374.976562 Z M 0 14.226562 " clip-rule="nonzero"/></clipPath></defs><rect x="-37.5" width="450" fill="#ffffff" y="-37.499999" height="449.999989" fill-opacity="1"/><rect x="-37.5" width="450" fill="#ffffff" y="-37.499999" height="449.999989" fill-opacity="1"/><g clip-path="url(#2662698790)"><path fill="#000000" d="M 371.175781 266.984375 C 371.175781 266.957031 371.175781 266.9375 371.175781 266.910156 C 371.175781 263.613281 368.511719 260.9375 365.207031 260.9375 C 359.59375 260.9375 354.746094 262.554688 350.542969 264.585938 C 346.46875 267.113281 342.960938 270.421875 339.664062 274.136719 C 337.140625 276.941406 334.46875 279.542969 331.589844 281.296875 C 328.992188 282.914062 326.117188 283.964844 322.820312 283.964844 C 319.527344 283.964844 316.714844 283.054688 314.1875 281.503906 C 311.386719 279.746094 308.714844 277.144531 306.050781 274.203125 C 302.957031 270.691406 299.449219 267.394531 295.386719 264.855469 C 290.96875 262.191406 286.046875 260.433594 280.367188 260.433594 C 274.753906 260.433594 269.90625 262.050781 265.5625 264.71875 C 261.488281 267.246094 257.980469 270.550781 254.6875 274.265625 C 252.164062 277.070312 249.488281 279.671875 246.613281 281.429688 C 244.011719 283.046875 241.070312 284.09375 237.839844 284.09375 C 234.546875 284.09375 231.734375 283.183594 229.210938 281.632812 C 226.40625 279.878906 223.734375 277.277344 221.070312 274.332031 C 217.980469 270.820312 214.472656 267.523438 210.40625 264.988281 C 205.988281 262.320312 201.070312 260.566406 195.390625 260.566406 C 189.773438 260.566406 184.929688 262.179688 180.585938 264.847656 C 176.511719 267.375 173.003906 270.679688 169.707031 274.398438 C 167.183594 277.203125 164.511719 279.804688 161.632812 281.558594 C 159.035156 283.175781 156.15625 284.226562 152.863281 284.226562 C 149.566406 284.226562 146.753906 283.3125 144.230469 281.761719 C 141.425781 280.007812 138.753906 277.40625 136.089844 274.460938 C 134.335938 272.566406 132.507812 270.597656 130.410156 268.84375 C 128.238281 267.011719 125.992188 265.394531 123.535156 264.066406 C 123.273438 263.929688 123.015625 263.824219 122.746094 263.722656 C 132.175781 233.507812 138.800781 202.742188 142.652344 171.480469 C 146.914062 184.375 150.234375 195.28125 152.65625 205.0625 C 155.8125 217.707031 157.566406 228.527344 158.058594 239.414062 C 158.199219 242.648438 160.9375 245.246094 164.230469 245.097656 C 165.847656 245.023438 167.183594 244.394531 168.230469 243.34375 C 171.601562 240.046875 174.550781 236.320312 177.140625 232.457031 C 185.003906 220.585938 189.28125 206.539062 189.066406 192.839844 C 188.976562 186.863281 188.019531 180.976562 186.136719 175.355469 C 187.101562 176.433594 188.058594 177.519531 189.003906 178.652344 C 197.636719 188.984375 205.421875 201.550781 212.375 216.300781 C 213.003906 217.84375 214.203125 219.109375 215.882812 219.75 C 218.972656 220.945312 222.40625 219.332031 223.53125 216.238281 C 229.359375 200.363281 231.039062 186.039062 229.496094 173.738281 C 228.097656 162.992188 224.234375 153.796875 218.40625 146.421875 C 212.578125 138.96875 204.789062 133.425781 195.742188 130.128906 C 191.046875 128.410156 186.023438 127.265625 180.734375 126.738281 C 189.53125 123.941406 198.710938 121.792969 208.308594 120.355469 C 224.308594 117.894531 241.292969 117.402344 259.402344 118.738281 C 260.597656 118.8125 261.785156 118.523438 262.910156 117.894531 C 265.710938 116.210938 266.632812 112.550781 264.941406 109.746094 C 258.066406 98.226562 248.234375 89.023438 236.867188 82.769531 C 226.34375 77.011719 214.546875 73.851562 202.40625 73.851562 C 190.265625 73.851562 177.914062 77.011719 166.328125 83.894531 C 161.660156 86.671875 157.148438 90.054688 152.851562 94.085938 C 152.910156 93.285156 152.964844 92.488281 152.992188 91.6875 C 153.699219 77.289062 150.1875 64.21875 143.449219 53.128906 C 136.710938 42.101562 126.894531 32.972656 114.882812 26.441406 C 102.605469 19.742188 88.078125 15.667969 72.421875 14.820312 C 69.125 14.605469 66.316406 17.144531 66.175781 20.441406 C 66.101562 22.410156 67.019531 24.230469 68.421875 25.355469 C 81.054688 36.734375 90.882812 50.285156 97.898438 65.957031 C 101.683594 74.382812 104.636719 83.515625 106.742188 93.277344 C 105.898438 92.433594 105.0625 91.519531 104.144531 90.675781 C 94.605469 81.617188 83.09375 76 71.160156 73.75 C 59.222656 71.503906 46.804688 72.628906 35.511719 77.046875 C 26.953125 80.347656 18.953125 85.613281 12.277344 92.644531 C 10.03125 95.03125 10.105469 98.824219 12.492188 101.070312 C 13.542969 102.054688 14.8125 102.546875 16.074219 102.6875 C 34.878906 105.214844 51.308594 108.863281 65.273438 113.648438 C 68.847656 114.875 72.253906 116.175781 75.492188 117.539062 C 67.371094 118.757812 60.28125 122.0625 54.257812 127.480469 C 42.472656 138.085938 35.304688 156.703125 32.78125 183.25 C 32.503906 185.359375 33.488281 187.609375 35.378906 188.871094 C 38.117188 190.703125 41.839844 189.996094 43.660156 187.253906 C 49.550781 178.335938 57.339844 170.824219 66.890625 164.570312 C 75.511719 158.941406 85.695312 154.4375 97.332031 150.933594 C 98.09375 152.011719 98.949219 153.023438 99.875 153.964844 C 101.824219 155.875 104.109375 157.472656 106.621094 158.644531 C 102.289062 186.066406 90.976562 217.492188 74.195312 250.617188 C 74.148438 250.710938 74.09375 250.800781 74.046875 250.894531 C 63.4375 246.875 53.488281 243.734375 43.039062 241.273438 C 31.667969 238.53125 19.878906 236.636719 6.46875 235.375 C 3.238281 235.019531 0.296875 237.40625 0.0078125 240.714844 L 0.0078125 368.617188 C 0.0078125 371.914062 2.671875 374.589844 5.976562 374.589844 L 365.300781 374.589844 C 368.59375 374.589844 371.269531 371.921875 371.269531 368.617188 L 371.269531 266.984375 Z M 167.796875 291.851562 C 171.871094 289.324219 175.378906 286.015625 178.460938 282.507812 C 181.058594 279.488281 183.722656 276.960938 186.597656 275.203125 C 189.125 273.664062 191.9375 272.742188 195.230469 272.742188 C 198.527344 272.742188 201.402344 273.726562 204 275.34375 C 206.953125 277.175781 209.617188 279.765625 212.078125 282.507812 C 215.371094 286.296875 218.878906 289.601562 222.953125 292.054688 C 227.308594 294.722656 232.152344 296.335938 237.757812 296.335938 C 243.4375 296.335938 248.355469 294.65625 252.773438 291.917969 C 256.847656 289.390625 260.359375 286.082031 263.4375 282.570312 C 266.039062 279.550781 268.703125 277.027344 271.578125 275.269531 C 274.101562 273.726562 276.914062 272.808594 280.210938 272.808594 C 283.503906 272.808594 286.382812 273.792969 288.980469 275.410156 C 291.933594 277.238281 294.597656 279.765625 297.054688 282.570312 C 300.425781 286.359375 303.859375 289.667969 307.933594 292.121094 C 312.285156 294.785156 317.132812 296.402344 322.738281 296.402344 C 328.417969 296.402344 333.335938 294.722656 337.753906 291.980469 C 341.828125 289.453125 345.335938 286.148438 348.417969 282.636719 C 351.015625 279.617188 353.679688 277.089844 356.558594 275.335938 C 357.429688 274.796875 358.339844 274.351562 359.296875 273.980469 L 359.296875 320.90625 C 356.085938 321.578125 353.132812 322.765625 350.386719 324.222656 C 346.3125 326.75 342.804688 330.058594 339.507812 333.773438 C 336.984375 336.578125 334.3125 339.179688 331.433594 340.933594 C 328.835938 342.550781 325.957031 343.601562 322.664062 343.601562 C 319.367188 343.601562 316.554688 342.691406 314.03125 341.140625 C 311.226562 339.382812 308.554688 336.78125 305.890625 333.839844 C 302.800781 330.328125 299.292969 327.027344 295.226562 324.492188 C 290.808594 321.828125 285.890625 320.070312 280.210938 320.070312 C 274.59375 320.070312 269.75 321.6875 265.40625 324.355469 C 261.332031 326.878906 257.824219 330.1875 254.527344 333.902344 C 252.988281 335.660156 251.652344 337.0625 250.527344 338.121094 C 250.035156 338.585938 249.515625 339.011719 248.960938 339.421875 C 223.324219 328.050781 198.527344 314.078125 173.753906 300.117188 C 170.238281 298.140625 166.710938 296.160156 163.191406 294.183594 C 164.789062 293.542969 166.328125 292.761719 167.796875 291.851562 Z M 116.5 148.910156 C 113.269531 148.910156 110.390625 147.644531 108.285156 145.539062 C 106.175781 143.503906 104.914062 140.550781 104.914062 137.316406 C 104.914062 134.085938 106.175781 131.203125 108.285156 129.097656 C 110.316406 126.988281 113.269531 125.722656 116.5 125.722656 C 119.726562 125.722656 122.605469 126.988281 124.710938 129.097656 C 125.984375 130.367188 126.929688 131.917969 127.496094 133.648438 C 127.503906 133.675781 127.503906 133.703125 127.515625 133.730469 C 127.644531 134.175781 127.773438 134.699219 127.894531 135.320312 C 127.921875 135.496094 127.953125 135.683594 127.980469 135.867188 C 127.996094 135.996094 128.007812 136.117188 128.027344 136.257812 C 128.054688 136.609375 128.082031 136.964844 128.082031 137.324219 C 128.082031 137.335938 128.082031 137.34375 128.082031 137.34375 C 128.082031 137.820312 128.042969 138.300781 127.988281 138.757812 C 127.988281 138.773438 127.980469 138.792969 127.980469 138.8125 C 127.914062 139.265625 127.832031 139.714844 127.730469 140.121094 C 127.515625 141.03125 127.164062 141.878906 126.746094 142.722656 C 126.699219 142.808594 126.660156 142.898438 126.625 142.992188 C 126.105469 143.921875 125.464844 144.785156 124.710938 145.539062 C 122.671875 147.644531 119.726562 148.910156 116.5 148.910156 Z M 157.058594 131.984375 L 157.269531 132.199219 C 159.238281 134.308594 160.425781 137.113281 160.425781 140.207031 C 160.425781 142.164062 159.953125 143.996094 159.117188 145.613281 C 158.902344 145.871094 158.699219 146.152344 158.53125 146.457031 C 158.441406 146.625 158.355469 146.792969 158.28125 146.96875 C 157.949219 147.433594 157.585938 147.878906 157.1875 148.296875 C 157.09375 148.378906 157.011719 148.464844 156.925781 148.558594 C 154.839844 150.589844 152.019531 151.871094 148.851562 151.871094 C 147.765625 151.871094 146.726562 151.714844 145.734375 151.445312 C 145.695312 151.4375 145.660156 151.425781 145.621094 151.410156 C 144.433594 151.066406 143.339844 150.542969 142.355469 149.886719 C 142.160156 149.71875 141.949219 149.558594 141.734375 149.421875 C 140.433594 148.390625 139.332031 147.070312 138.542969 145.621094 C 138.894531 144.777344 139.171875 143.867188 139.386719 142.957031 C 139.878906 141.125 140.089844 139.230469 140.089844 137.335938 C 140.089844 136.210938 140.015625 135.011719 139.8125 133.75 L 139.671875 133.042969 C 139.8125 132.859375 139.96875 132.691406 140.117188 132.515625 C 140.238281 132.394531 140.351562 132.273438 140.453125 132.144531 C 141.160156 131.417969 141.976562 130.785156 142.828125 130.238281 C 144.582031 129.1875 146.691406 128.558594 148.863281 128.558594 C 152.082031 128.539062 154.960938 129.875 157.058594 131.984375 Z M 168.574219 223.789062 C 167.589844 216.90625 166.191406 209.882812 164.222656 202.230469 C 161.417969 191 157.539062 178.496094 152.519531 163.429688 C 155.703125 162.910156 158.679688 161.738281 161.316406 160.058594 C 162.570312 161.058594 163.738281 162.101562 164.84375 163.167969 C 173.199219 171.453125 176.984375 182.0625 177.199219 193.089844 C 177.410156 203.558594 174.253906 214.371094 168.574219 223.789062 Z M 209.058594 153.683594 C 213.550781 159.445312 216.570312 166.605469 217.691406 175.179688 C 218.601562 181.988281 218.257812 189.652344 216.429688 198.078125 C 210.75 187.894531 204.707031 178.90625 198.109375 171.035156 C 189.921875 161.207031 181.003906 153.21875 171.3125 147.015625 C 171.992188 144.832031 172.351562 142.519531 172.351562 140.132812 C 172.351562 139.535156 172.324219 138.960938 172.277344 138.375 C 179.324219 138.207031 185.839844 139.210938 191.574219 141.253906 C 198.609375 143.855469 204.640625 148.0625 209.058594 153.683594 Z M 172.425781 94.121094 C 182.042969 88.363281 192.355469 85.761719 202.394531 85.761719 C 212.503906 85.761719 222.398438 88.429688 231.167969 93.210938 C 237.273438 96.582031 242.890625 100.941406 247.585938 106.207031 C 233.265625 105.789062 219.585938 106.558594 206.535156 108.53125 C 190.898438 110.9375 176.175781 115.042969 162.339844 120.855469 C 158.664062 118.285156 154.179688 116.714844 149.335938 116.621094 C 156.167969 106.550781 164.054688 99.15625 172.425781 94.121094 Z M 88.636719 28.941406 C 96.078125 30.695312 103.097656 33.363281 109.34375 36.808594 C 119.515625 42.355469 127.804688 50.015625 133.417969 59.214844 C 138.957031 68.34375 141.835938 79.09375 141.203125 91.027344 C 140.722656 100.273438 138.125 110.210938 133.101562 120.644531 C 130.085938 117.6875 126.269531 115.496094 122.03125 114.457031 C 120.351562 94.714844 115.921875 76.945312 108.851562 61.035156 C 103.589844 49.238281 96.851562 38.5625 88.636719 28.941406 Z M 30.601562 92.792969 C 33.476562 90.898438 36.632812 89.347656 39.796875 88.085938 C 49.0625 84.5 59.234375 83.589844 68.996094 85.417969 C 78.75 87.25 88.226562 91.808594 96.015625 99.257812 C 100.671875 103.605469 104.757812 108.984375 108.023438 115.375 C 105.945312 116.175781 104.015625 117.261719 102.261719 118.589844 C 93.109375 112.152344 82.066406 106.710938 69.125 102.277344 C 57.757812 98.40625 44.984375 95.246094 30.601562 92.792969 Z M 60.421875 154.605469 C 55.863281 157.558594 51.714844 160.78125 47.863281 164.292969 C 50.953125 151.511719 55.726562 142.164062 62.25 136.339844 C 69.960938 129.402344 80.578125 127.40625 94.085938 130.265625 C 93.378906 132.503906 92.988281 134.875 92.988281 137.324219 C 92.988281 138.152344 93.035156 138.960938 93.117188 139.769531 C 80.738281 143.585938 69.859375 148.527344 60.421875 154.605469 Z M 118.308594 160.773438 C 123.117188 160.410156 127.535156 158.597656 131.125 155.746094 C 131.496094 156.164062 131.867188 156.5625 132.265625 156.953125 C 128.785156 192.429688 121.660156 227.375 110.882812 261.71875 C 100.136719 295.976562 85.609375 329.640625 67.519531 362.578125 L 16.371094 362.578125 C 43.863281 326.964844 67.242188 290.597656 84.773438 255.957031 C 102.011719 221.914062 113.714844 189.429688 118.308594 160.773438 Z M 40.417969 252.800781 C 49.636719 255.027344 58.75 257.890625 68.457031 261.53125 C 53.125 290.09375 34.015625 319.617188 11.992188 348.730469 L 11.992188 247.8125 C 22.171875 249 31.4375 250.617188 40.417969 252.800781 Z M 81.035156 362.578125 C 95.113281 336.273438 106.9375 309.574219 116.488281 282.507812 C 133.585938 291.183594 150.738281 300.851562 167.945312 310.53125 C 202.824219 330.195312 237.777344 349.863281 275.320312 362.578125 Z M 325.632812 362.652344 C 303.199219 359.457031 281.816406 352.984375 261.042969 344.578125 C 261.84375 343.730469 262.621094 342.867188 263.449219 341.929688 C 266.046875 338.910156 268.710938 336.382812 271.589844 334.628906 C 274.113281 333.085938 276.925781 332.167969 280.21875 332.167969 C 283.515625 332.167969 286.390625 333.152344 288.992188 334.765625 C 291.941406 336.597656 294.605469 339.1875 297.066406 341.929688 C 300.359375 345.71875 303.867188 349.027344 307.941406 351.476562 C 312.296875 354.144531 317.140625 355.761719 322.746094 355.761719 C 328.425781 355.761719 333.34375 354.078125 337.761719 351.339844 C 341.835938 348.8125 345.347656 345.503906 348.425781 341.992188 C 351.027344 338.976562 353.691406 336.449219 356.566406 334.691406 C 357.441406 334.152344 358.347656 333.707031 359.304688 333.335938 L 359.304688 362.652344 Z M 273.136719 170.824219 L 284.953125 170.824219 C 285.84375 175.976562 287.859375 180.753906 290.761719 184.859375 L 282.402344 193.226562 C 280.082031 195.550781 280.082031 199.339844 282.402344 201.652344 C 284.722656 203.976562 288.507812 203.976562 290.820312 201.652344 L 299.171875 193.292969 C 303.273438 196.191406 308.042969 198.214844 313.207031 199.097656 L 313.207031 210.925781 C 313.207031 214.222656 315.867188 216.898438 319.171875 216.898438 C 322.476562 216.898438 325.140625 214.230469 325.140625 210.925781 L 325.140625 199.109375 C 330.308594 198.226562 335.070312 196.199219 339.175781 193.300781 L 347.527344 201.664062 C 349.847656 203.984375 353.632812 203.984375 355.945312 201.664062 C 358.265625 199.339844 358.265625 195.550781 355.945312 193.238281 L 347.554688 184.839844 C 350.441406 180.726562 352.472656 175.960938 353.375 170.824219 L 365.199219 170.824219 C 368.492188 170.824219 371.167969 168.15625 371.167969 164.851562 C 371.167969 161.542969 368.503906 158.878906 365.199219 158.878906 L 353.382812 158.878906 C 352.492188 153.722656 350.480469 148.945312 347.574219 144.839844 L 355.9375 136.472656 C 358.257812 134.148438 358.257812 130.359375 355.9375 128.046875 C 353.617188 125.722656 349.828125 125.722656 347.519531 128.046875 L 339.164062 136.40625 C 335.0625 133.507812 330.292969 131.484375 325.132812 130.601562 L 325.132812 118.777344 C 325.132812 115.476562 322.46875 112.804688 319.164062 112.804688 C 315.859375 112.804688 313.195312 115.46875 313.195312 118.777344 L 313.195312 130.609375 C 308.042969 131.511719 303.300781 133.546875 299.191406 136.433594 L 290.808594 128.046875 C 288.488281 125.722656 284.703125 125.722656 282.390625 128.046875 C 280.070312 130.367188 280.070312 134.160156 282.390625 136.472656 L 290.773438 144.859375 C 287.886719 148.976562 285.851562 153.738281 284.953125 158.878906 L 273.128906 158.878906 C 269.832031 158.878906 267.160156 161.542969 267.160156 164.851562 C 267.160156 168.15625 269.84375 170.824219 273.136719 170.824219 Z M 319.171875 142.027344 C 325.484375 142.027344 331.171875 144.554688 335.3125 148.695312 L 335.589844 148.976562 C 339.515625 153.050781 341.976562 158.664062 341.976562 164.851562 C 341.976562 171.175781 339.453125 176.859375 335.3125 181.003906 C 331.171875 185.148438 325.484375 187.671875 319.171875 187.671875 C 312.863281 187.671875 307.171875 185.148438 303.03125 181.003906 L 302.753906 180.726562 C 298.828125 176.648438 296.367188 171.035156 296.367188 164.851562 C 296.367188 158.523438 298.894531 152.839844 303.03125 148.695312 C 307.171875 144.554688 312.863281 142.027344 319.171875 142.027344 Z M 319.171875 142.027344 " fill-opacity="1" fill-rule="nonzero"/></g></svg>