<svg xmlns="http://www.w3.org/2000/svg" xmlns:xlink="http://www.w3.org/1999/xlink" width="500" zoomAndPan="magnify" viewBox="0 0 375 374.999991" height="500" preserveAspectRatio="xMidYMid meet" version="1.0"><defs><clipPath id="fbe3988c49"><path d="M 12.710938 37.5 L 362.210938 37.5 L 362.210938 375 L 12.710938 375 Z M 12.710938 37.5 " clip-rule="nonzero"/></clipPath></defs><rect x="-37.5" width="450" fill="#ffffff" y="-37.499999" height="449.999989" fill-opacity="1"/><rect x="-37.5" width="450" fill="#ffffff" y="-37.499999" height="449.999989" fill-opacity="1"/><g clip-path="url(#fbe3988c49)"><path fill="#000000" d="M 356.542969 202.03125 C 359.644531 202.03125 362.160156 199.523438 362.160156 196.414062 L 362.160156 167.277344 C 362.160156 164.175781 359.65625 161.65625 356.542969 161.65625 L 348.753906 161.65625 L 348.753906 43.117188 C 348.753906 40.015625 346.246094 37.5 343.136719 37.5 L 31.726562 37.5 C 28.625 37.5 26.109375 40.007812 26.109375 43.117188 L 26.109375 161.578125 L 18.441406 161.578125 C 15.339844 161.578125 12.824219 164.085938 12.824219 167.195312 L 12.824219 196.332031 C 12.824219 199.433594 15.332031 201.953125 18.441406 201.953125 C 21 201.953125 23.550781 201.953125 26.101562 201.953125 L 26.101562 300.476562 L 18.378906 300.476562 C 15.269531 300.476562 12.761719 302.992188 12.761719 306.09375 L 12.761719 335.230469 C 12.761719 338.332031 15.269531 340.847656 18.378906 340.847656 L 26.109375 340.847656 L 26.109375 369.390625 C 26.109375 372.492188 28.617188 375.007812 31.726562 375.007812 L 343.136719 375.007812 C 346.238281 375.007812 348.753906 372.5 348.753906 369.390625 L 348.753906 340.847656 L 356.542969 340.847656 C 359.644531 340.847656 362.160156 338.339844 362.160156 335.230469 L 362.160156 306.09375 C 362.160156 302.992188 359.65625 300.476562 356.542969 300.476562 L 348.753906 300.476562 L 348.753906 202.03125 Z M 337.519531 98.945312 L 296.824219 98.945312 L 296.824219 48.734375 L 337.519531 48.734375 Z M 244.964844 98.945312 L 244.964844 48.734375 L 285.589844 48.734375 L 285.589844 98.953125 L 244.964844 98.953125 Z M 193.042969 98.945312 L 193.042969 48.734375 L 233.738281 48.734375 L 233.738281 98.953125 L 193.042969 98.953125 Z M 141.183594 98.945312 L 141.183594 48.734375 L 181.808594 48.734375 L 181.808594 98.953125 L 141.183594 98.953125 Z M 89.261719 98.945312 L 89.261719 48.734375 L 129.960938 48.734375 L 129.960938 98.953125 L 89.261719 98.953125 Z M 37.332031 48.734375 L 78.03125 48.734375 L 78.03125 98.953125 L 37.332031 98.953125 Z M 37.332031 110.179688 L 82.824219 110.179688 C 83.097656 110.214844 83.367188 110.25 83.648438 110.25 C 83.925781 110.25 84.195312 110.222656 84.46875 110.179688 L 134.753906 110.179688 C 135.027344 110.214844 135.296875 110.25 135.574219 110.25 C 135.855469 110.25 136.125 110.222656 136.398438 110.179688 L 186.625 110.179688 C 186.894531 110.214844 187.164062 110.25 187.445312 110.25 C 187.722656 110.25 187.996094 110.222656 188.265625 110.179688 L 238.554688 110.179688 C 238.824219 110.214844 239.09375 110.25 239.375 110.25 C 239.652344 110.25 239.925781 110.222656 240.195312 110.179688 L 290.421875 110.179688 C 290.691406 110.214844 290.960938 110.25 291.242188 110.25 C 291.523438 110.25 291.792969 110.222656 292.0625 110.179688 L 337.554688 110.179688 L 337.554688 161.648438 L 279.023438 161.648438 C 271.230469 149.6875 258.941406 140.242188 244.074219 133.699219 C 227.496094 126.371094 207.675781 122.535156 187.460938 122.535156 C 167.117188 122.535156 147.492188 126.097656 131.042969 133.308594 C 116.507812 139.78125 104.289062 149.164062 96.09375 161.585938 L 37.332031 161.585938 Z M 23.996094 172.953125 L 99.039062 172.953125 C 101.222656 172.953125 103.132812 171.695312 104.058594 169.914062 C 110.933594 158.417969 121.96875 149.695312 135.4375 143.746094 C 150.496094 137.074219 168.53125 133.839844 187.425781 133.839844 C 206.121094 133.839844 224.359375 137.34375 239.488281 144.019531 C 253.359375 150.160156 264.589844 158.949219 270.996094 170.113281 C 272.050781 171.96875 273.964844 172.953125 275.886719 172.953125 L 351 172.953125 L 351 190.863281 L 259.960938 190.863281 C 256.328125 179.296875 247.671875 169.1875 235.652344 161.789062 C 222.707031 153.855469 205.859375 149.03125 187.496094 149.03125 C 169.136719 149.03125 152.285156 153.855469 139.339844 161.789062 C 127.320312 169.117188 118.664062 179.234375 115.03125 190.863281 L 23.996094 190.863281 Z M 75.523438 205.132812 L 75.523438 300.414062 L 37.332031 300.414062 L 37.332031 205.132812 Z M 37.332031 340.847656 L 78.03125 340.847656 L 78.03125 363.773438 L 37.332031 363.773438 Z M 129.960938 340.847656 L 129.960938 363.773438 L 89.261719 363.773438 L 89.261719 340.847656 Z M 141.183594 340.847656 L 181.808594 340.847656 L 181.808594 363.773438 L 141.183594 363.773438 Z M 193.042969 340.847656 L 233.738281 340.847656 L 233.738281 363.773438 L 193.042969 363.773438 Z M 244.964844 340.847656 L 285.589844 340.847656 L 285.589844 363.773438 L 244.964844 363.773438 Z M 337.519531 363.773438 L 296.824219 363.773438 L 296.824219 340.847656 L 337.519531 340.847656 Z M 350.929688 329.613281 L 343.949219 329.613281 C 343.679688 329.578125 343.40625 329.542969 343.136719 329.542969 L 291.214844 329.542969 C 291.214844 329.542969 291.207031 329.542969 291.207031 329.542969 C 291.207031 329.542969 291.199219 329.542969 291.199219 329.542969 L 239.355469 329.542969 C 239.355469 329.542969 239.347656 329.542969 239.347656 329.542969 C 239.347656 329.542969 239.339844 329.542969 239.339844 329.542969 L 187.425781 329.542969 C 187.425781 329.542969 187.417969 329.542969 187.417969 329.542969 C 187.417969 329.542969 187.410156 329.542969 187.410156 329.542969 L 135.574219 329.542969 C 135.574219 329.542969 135.566406 329.542969 135.566406 329.542969 C 135.566406 329.542969 135.558594 329.542969 135.558594 329.542969 L 83.65625 329.542969 C 83.65625 329.542969 83.648438 329.542969 83.648438 329.542969 C 83.648438 329.542969 83.636719 329.542969 83.636719 329.542969 L 31.726562 329.542969 C 31.445312 329.542969 31.175781 329.570312 30.914062 329.613281 L 24.003906 329.613281 L 24.003906 311.703125 L 122.414062 311.703125 C 122.972656 311.789062 123.539062 311.789062 124.097656 311.703125 L 170.734375 311.703125 C 170.910156 311.710938 171.082031 311.710938 171.257812 311.703125 L 208.191406 311.703125 C 208.566406 311.738281 208.941406 311.738281 209.308594 311.703125 L 350.9375 311.703125 L 350.9375 329.613281 Z M 119.714844 290.628906 C 119.121094 288.050781 118.917969 285.273438 119.1875 282.171875 C 120.046875 282.566406 120.910156 282.96875 121.765625 283.359375 C 125.792969 285.011719 130.554688 286.460938 136.101562 287.589844 C 137.226562 287.789062 138.414062 287.71875 139.53125 287.195312 C 142.371094 285.9375 143.558594 282.636719 142.3125 279.796875 C 138.34375 271.207031 136.300781 262.550781 136.039062 253.890625 C 135.90625 249 136.371094 244.113281 137.429688 239.222656 C 138.414062 240.410156 139.542969 241.597656 140.667969 242.65625 C 144.894531 246.621094 150.050781 249.792969 156.058594 252.039062 C 157.117188 252.433594 158.304688 252.503906 159.492188 252.171875 C 162.460938 251.375 164.183594 248.273438 163.386719 245.292969 C 160.480469 234.59375 167.546875 227.847656 174.550781 221.3125 C 181.558594 214.707031 188.492188 208.164062 189.347656 198.519531 C 194.703125 202.285156 199.253906 206.644531 202.886719 211.738281 C 208.503906 219.601562 212.136719 229.183594 213.71875 240.480469 C 213.851562 241.144531 214.050781 241.871094 214.445312 242.523438 C 216.035156 245.171875 219.464844 246.089844 222.105469 244.507812 C 225.9375 242.324219 229.632812 239.816406 233.339844 237.039062 C 234.988281 235.851562 236.578125 234.53125 238.230469 233.203125 C 239.820312 238.558594 240.738281 244.105469 241.007812 249.855469 C 241.339844 258.382812 240.28125 267.433594 237.707031 277.007812 C 237.445312 277.933594 237.445312 278.992188 237.773438 280.050781 C 238.703125 282.957031 241.800781 284.671875 244.78125 283.753906 C 248.152344 282.695312 251.453125 281.507812 254.757812 280.050781 L 256.667969 279.191406 C 256.539062 282.625 256.003906 285.796875 255.019531 288.707031 C 253.558594 293.09375 251 297.015625 247.410156 300.46875 L 216.460938 300.46875 C 218.53125 291.765625 218.035156 283.0625 214.984375 274.371094 C 211.222656 263.667969 203.421875 253.027344 191.734375 242.65625 C 190.605469 241.46875 188.957031 240.804688 187.242188 240.933594 C 184.140625 241.136719 181.828125 243.84375 182.089844 246.945312 C 182.882812 257.125 177.730469 263.398438 172.839844 269.40625 C 165.929688 277.796875 159.371094 285.839844 163.089844 300.46875 L 125.355469 300.46875 C 122.507812 297.628906 120.621094 294.378906 119.714844 290.628906 Z M 174.847656 300.476562 C 171.144531 289.082031 176.175781 282.949219 181.488281 276.492188 C 185.714844 271.277344 190.074219 265.984375 192.1875 258.652344 C 198.066406 265.125 202.164062 271.601562 204.40625 278.011719 C 207.035156 285.507812 207.140625 292.953125 204.800781 300.476562 Z M 299.339844 300.476562 L 299.339844 203.613281 L 337.519531 203.613281 L 337.519531 300.476562 Z M 288.105469 300.476562 L 261.8125 300.476562 C 263.394531 297.960938 264.6875 295.3125 265.648438 292.550781 C 267.964844 285.746094 268.488281 278.144531 267.238281 269.757812 C 266.777344 266.65625 263.9375 264.542969 260.898438 264.996094 C 260.039062 265.125 259.308594 265.457031 258.652344 265.851562 C 256.003906 267.371094 253.367188 268.691406 250.789062 269.820312 C 252.046875 262.882812 252.441406 256.074219 252.179688 249.53125 C 251.714844 239.683594 249.601562 230.371094 245.769531 221.582031 C 244.511719 218.742188 241.207031 217.425781 238.371094 218.671875 C 237.773438 218.9375 237.242188 219.269531 236.78125 219.660156 C 233.347656 222.761719 229.90625 225.671875 226.472656 228.25 C 225.34375 229.042969 224.289062 229.839844 223.171875 230.625 C 220.855469 221.042969 217.089844 212.652344 211.875 205.316406 C 205.140625 195.933594 195.953125 188.460938 184.394531 183.046875 C 181.558594 181.726562 178.253906 182.976562 176.925781 185.753906 C 176.261719 187.144531 176.261719 188.664062 176.726562 190.050781 C 180.5625 200.292969 173.6875 206.765625 166.75 213.308594 C 159.613281 219.984375 152.417969 226.851562 151.359375 237.230469 C 150.234375 236.375 149.175781 235.507812 148.1875 234.582031 C 145.019531 231.613281 142.574219 227.976562 140.722656 223.679688 C 139.53125 220.839844 136.230469 219.519531 133.390625 220.710938 C 131.871094 221.375 130.746094 222.621094 130.292969 224.082031 C 126.324219 234.191406 124.472656 244.238281 124.746094 254.277344 C 124.875 260.820312 126.003906 267.355469 127.984375 273.898438 L 126.074219 273.101562 C 123.03125 271.785156 120.65625 270.394531 119.003906 268.804688 C 116.761719 266.691406 113.1875 266.820312 111.074219 269.066406 C 110.410156 269.730469 110.015625 270.585938 109.753906 271.445312 C 107.570312 279.507812 107.25 286.835938 108.828125 293.3125 C 109.449219 295.835938 110.339844 298.210938 111.492188 300.449219 L 86.746094 300.449219 L 86.746094 201.976562 C 97.648438 201.976562 108.542969 201.988281 119.453125 201.960938 C 122.097656 201.960938 124.402344 200.109375 124.9375 197.398438 C 126.851562 187.160156 134.316406 177.976562 145.21875 171.234375 C 156.453125 164.296875 171.25 160.128906 187.496094 160.128906 C 203.742188 160.128906 218.550781 164.355469 229.773438 171.234375 C 240.542969 177.839844 247.941406 186.960938 249.988281 197.066406 C 250.320312 199.847656 252.695312 202.019531 255.535156 202.019531 L 288.097656 202.019531 L 288.097656 300.476562 Z M 288.105469 300.476562 " fill-opacity="1" fill-rule="nonzero"/></g></svg>