<svg xmlns="http://www.w3.org/2000/svg" xmlns:xlink="http://www.w3.org/1999/xlink" width="500" zoomAndPan="magnify" viewBox="0 0 375 374.999991" height="500" preserveAspectRatio="xMidYMid meet" version="1.0"><defs><clipPath id="e9fec0d3bf"><path d="M 0 27.953125 L 375 27.953125 L 375 375 L 0 375 Z M 0 27.953125 " clip-rule="nonzero"/></clipPath></defs><rect x="-37.5" width="450" fill="#ffffff" y="-37.499999" height="449.999989" fill-opacity="1"/><rect x="-37.5" width="450" fill="#ffffff" y="-37.499999" height="449.999989" fill-opacity="1"/><g clip-path="url(#e9fec0d3bf)"><path fill="#000000" d="M 368.972656 363.132812 L 297.074219 363.132812 L 297.074219 100.707031 L 311.539062 100.707031 L 311.539062 130.578125 C 311.539062 133.90625 314.230469 136.609375 317.570312 136.609375 L 347.277344 136.609375 C 350.605469 136.609375 353.304688 133.917969 353.304688 130.578125 L 353.304688 100.707031 L 368.972656 100.707031 C 372.300781 100.707031 375 98.015625 375 94.675781 L 375 69.921875 C 375 66.589844 372.308594 63.890625 368.972656 63.890625 L 353.304688 63.890625 L 353.304688 34.019531 C 353.304688 30.691406 350.617188 27.988281 347.277344 27.988281 L 317.570312 27.988281 C 314.242188 27.988281 311.539062 30.683594 311.539062 34.019531 L 311.539062 63.890625 L 261.234375 63.890625 C 260.945312 63.550781 260.664062 63.214844 260.34375 62.894531 C 256.941406 59.414062 252.1875 57.296875 247.011719 57.296875 C 241.835938 57.296875 237.085938 59.425781 233.679688 62.894531 C 233.371094 63.214844 233.082031 63.550781 232.789062 63.890625 L 142.179688 63.890625 C 141.890625 63.550781 141.609375 63.214844 141.289062 62.894531 C 137.886719 59.414062 133.132812 57.296875 127.960938 57.296875 C 122.785156 57.296875 118.03125 59.425781 114.628906 62.894531 C 114.320312 63.214844 114.027344 63.550781 113.738281 63.890625 L 63.460938 63.890625 L 63.460938 34.019531 C 63.460938 30.691406 60.769531 27.988281 57.429688 27.988281 L 27.722656 27.988281 C 24.460938 27.988281 21.695312 30.683594 21.695312 34.019531 L 21.695312 63.890625 L 6.027344 63.890625 C 2.691406 63.890625 0 66.582031 0 69.921875 L 0 94.675781 C 0 98.007812 2.691406 100.707031 6.027344 100.707031 L 21.695312 100.707031 L 21.695312 130.578125 C 21.695312 133.90625 24.382812 136.609375 27.722656 136.609375 L 57.429688 136.609375 C 60.757812 136.609375 63.460938 133.917969 63.460938 130.578125 L 63.460938 100.707031 L 77.925781 100.707031 L 77.925781 363.132812 L 6.027344 363.132812 C 2.699219 363.132812 0 365.824219 0 369.164062 C 0 372.503906 2.691406 375.199219 6.027344 375.199219 L 368.972656 375.199219 C 372.300781 375.199219 375 372.503906 375 369.164062 C 375 365.824219 372.308594 363.132812 368.972656 363.132812 Z M 285.027344 363.132812 L 235.753906 363.132812 L 235.753906 272.675781 L 251.710938 272.675781 C 255.039062 272.675781 257.738281 269.984375 257.738281 266.644531 L 257.738281 257.5625 C 257.738281 248.625 254.117188 240.460938 248.304688 234.582031 C 246.703125 232.957031 244.921875 231.511719 243.007812 230.246094 C 248.363281 226.832031 252.796875 222.433594 256.320312 217.125 C 262.847656 207.1875 266.035156 194.28125 265.894531 179.027344 C 265.894531 178.785156 265.875 178.550781 265.847656 178.316406 C 265.875 178.082031 265.894531 177.847656 265.894531 177.601562 L 265.894531 100.707031 L 285.039062 100.707031 L 285.039062 363.132812 Z M 149.53125 237.066406 L 225.535156 237.066406 C 231.066406 237.066406 236.101562 239.335938 239.71875 243.023438 C 243.402344 246.785156 245.671875 251.886719 245.671875 257.5625 L 245.671875 260.613281 L 129.394531 260.613281 L 129.394531 257.5625 C 129.394531 251.886719 131.664062 246.710938 135.347656 243.023438 C 138.964844 239.335938 144 237.066406 149.53125 237.066406 Z M 146.839844 100.707031 L 228.167969 100.707031 L 228.167969 171.578125 L 215.054688 171.578125 C 214.707031 171.195312 214.351562 170.8125 213.984375 170.445312 C 207.179688 163.558594 197.820312 159.308594 187.539062 159.308594 C 177.1875 159.308594 167.820312 163.570312 161.089844 170.445312 C 160.726562 170.8125 160.367188 171.195312 160.023438 171.578125 L 146.839844 171.578125 Z M 169.667969 178.886719 C 174.207031 174.207031 180.515625 171.363281 187.539062 171.363281 C 194.558594 171.363281 200.867188 174.273438 205.40625 178.886719 C 209.945312 183.570312 212.851562 190.023438 212.851562 197.125 C 212.851562 204.226562 210.019531 210.679688 205.40625 215.359375 C 200.867188 220.039062 194.558594 222.882812 187.539062 222.882812 C 180.515625 222.882812 174.207031 219.976562 169.667969 215.359375 C 165.054688 210.746094 162.226562 204.289062 162.226562 197.125 C 162.226562 190.03125 165.054688 183.570312 169.667969 178.886719 Z M 223.695312 272.675781 L 223.695312 311.839844 L 151.378906 311.839844 L 151.378906 272.675781 Z M 151.378906 323.902344 L 223.695312 323.902344 L 223.695312 363.132812 L 151.378906 363.132812 Z M 362.945312 75.953125 L 362.945312 88.65625 L 353.296875 88.65625 L 353.296875 75.953125 Z M 323.597656 40.054688 L 341.25 40.054688 L 341.25 124.546875 L 323.597656 124.546875 Z M 311.539062 75.945312 L 311.539062 88.644531 L 291.054688 88.644531 C 291.054688 88.644531 291.046875 88.644531 291.046875 88.644531 C 291.046875 88.644531 291.039062 88.644531 291.039062 88.644531 L 265.875 88.644531 L 265.875 76.300781 C 265.875 76.179688 265.855469 76.066406 265.855469 75.945312 Z M 247.023438 69.347656 C 248.867188 69.347656 250.566406 70.128906 251.773438 71.339844 C 253.050781 72.613281 253.828125 74.386719 253.828125 76.300781 L 253.828125 177.613281 C 253.828125 177.957031 253.867188 178.304688 253.921875 178.632812 C 253.914062 178.785156 253.902344 178.945312 253.902344 179.09375 C 253.976562 191.9375 251.492188 202.574219 246.242188 210.378906 C 241.472656 217.6875 234.1875 222.695312 224.476562 224.992188 L 212.726562 224.992188 C 213.148438 224.601562 213.570312 224.195312 213.976562 223.785156 C 220.707031 216.972656 224.898438 207.535156 224.898438 197.105469 C 224.898438 192.378906 224.015625 187.828125 222.421875 183.625 L 234.253906 183.625 C 237.582031 183.625 240.28125 180.933594 240.28125 177.59375 C 240.28125 177.292969 240.253906 177.011719 240.214844 176.71875 L 240.214844 76.300781 C 240.214844 75.183594 240.488281 74.113281 240.964844 73.167969 C 241.085938 72.980469 241.199219 72.773438 241.304688 72.574219 C 241.585938 72.125 241.914062 71.714844 242.277344 71.339844 C 243.476562 70.128906 245.175781 69.347656 247.023438 69.347656 Z M 228.179688 75.945312 C 228.179688 76.066406 228.160156 76.179688 228.160156 76.300781 L 228.160156 88.644531 L 146.832031 88.644531 L 146.832031 76.300781 C 146.832031 76.179688 146.8125 76.066406 146.8125 75.945312 Z M 127.976562 69.347656 C 129.824219 69.347656 131.523438 70.128906 132.730469 71.339844 C 133.097656 71.703125 133.414062 72.117188 133.695312 72.558594 C 133.800781 72.773438 133.921875 72.988281 134.054688 73.1875 C 134.523438 74.132812 134.792969 75.195312 134.792969 76.300781 L 134.792969 177.613281 C 134.792969 180.941406 137.484375 183.644531 140.820312 183.644531 L 152.644531 183.644531 C 151.058594 187.828125 150.1875 192.367188 150.1875 197.125 C 150.1875 207.480469 154.367188 216.992188 161.109375 223.800781 C 161.511719 224.214844 161.933594 224.617188 162.355469 225.011719 L 150.28125 225.011719 C 140.699219 222.621094 133.507812 217.640625 128.773438 210.472656 C 123.601562 202.601562 121.050781 191.953125 121.191406 179.113281 C 121.191406 178.859375 121.171875 178.617188 121.144531 178.371094 C 121.171875 178.128906 121.191406 177.875 121.191406 177.621094 L 121.191406 76.308594 C 121.191406 75.191406 121.460938 74.125 121.941406 73.167969 C 122.0625 72.980469 122.164062 72.792969 122.269531 72.585938 C 122.550781 72.136719 122.878906 71.714844 123.253906 71.335938 C 124.433594 70.128906 126.132812 69.347656 127.976562 69.347656 Z M 12.054688 88.644531 L 12.054688 75.945312 L 21.703125 75.945312 L 21.703125 88.644531 Z M 51.402344 124.546875 L 33.75 124.546875 L 33.75 40.054688 L 51.402344 40.054688 Z M 63.460938 75.945312 L 109.132812 75.945312 C 109.132812 76.066406 109.117188 76.179688 109.117188 76.300781 L 109.117188 88.644531 L 83.953125 88.644531 C 83.953125 88.644531 83.945312 88.644531 83.945312 88.644531 C 83.945312 88.644531 83.933594 88.644531 83.933594 88.644531 L 63.460938 88.644531 Z M 89.972656 100.707031 L 109.117188 100.707031 L 109.117188 177.613281 C 109.117188 177.957031 109.152344 178.296875 109.210938 178.625 C 109.199219 178.757812 109.191406 178.898438 109.191406 179.027344 C 108.976562 194.28125 112.171875 207.1875 118.6875 217.199219 C 122.203125 222.488281 126.628906 226.878906 131.953125 230.292969 C 130.078125 231.542969 128.335938 232.96875 126.769531 234.582031 C 120.957031 240.472656 117.335938 248.625 117.335938 257.5625 L 117.335938 266.644531 C 117.335938 269.972656 120.027344 272.675781 123.367188 272.675781 L 139.320312 272.675781 L 139.320312 317.863281 C 139.320312 317.863281 139.320312 317.871094 139.320312 317.871094 C 139.320312 317.871094 139.320312 317.882812 139.320312 317.882812 L 139.320312 363.132812 L 89.972656 363.132812 Z M 89.972656 100.707031 " fill-opacity="1" fill-rule="nonzero"/></g></svg>