<svg xmlns="http://www.w3.org/2000/svg" xmlns:xlink="http://www.w3.org/1999/xlink" width="500" zoomAndPan="magnify" viewBox="0 0 375 374.999991" height="500" preserveAspectRatio="xMidYMid meet" version="1.0"><defs><clipPath id="6f293c5f66"><path d="M 1 24.988281 L 363.75 24.988281 L 363.75 375 L 1 375 Z M 1 24.988281 " clip-rule="nonzero"/></clipPath></defs><rect x="-37.5" width="450" fill="#ffffff" y="-37.499999" height="449.999989" fill-opacity="1"/><rect x="-37.5" width="450" fill="#ffffff" y="-37.499999" height="449.999989" fill-opacity="1"/><g clip-path="url(#6f293c5f66)"><path fill="#000000" d="M 346.949219 363.632812 L 346.949219 363.558594 L 304.472656 363.558594 C 297.011719 363.558594 290.226562 360.539062 285.363281 355.609375 C 280.429688 350.738281 277.421875 343.886719 277.421875 336.40625 L 277.421875 324.953125 L 282.691406 324.953125 C 287.078125 324.953125 291.324219 323.167969 294.546875 320.292969 C 297.773438 317.410156 300.101562 313.4375 300.644531 309.050781 L 318.175781 174.398438 C 318.347656 174.316406 318.511719 174.226562 318.675781 174.128906 C 331.472656 168.082031 342.332031 158.578125 350.175781 146.863281 C 358.460938 134.378906 363.324219 119.4375 363.324219 103.386719 C 363.324219 81.78125 354.621094 62.242188 340.511719 48.042969 C 326.402344 33.835938 306.945312 25.0625 285.4375 25.0625 C 222.214844 26.847656 158.164062 30.753906 94.929688 33.703125 C 91.914062 33.835938 89.179688 35.070312 87.050781 36.921875 C 84.996094 38.769531 83.492188 41.246094 82.941406 43.984375 C 80.757812 55.164062 80.957031 101.113281 82.878906 113.253906 C 83.355469 116.136719 84.933594 118.738281 87.050781 120.660156 C 89.171875 122.511719 91.914062 123.742188 94.929688 123.878906 L 122.707031 125.148438 C 123.050781 125.210938 123.40625 125.25 123.769531 125.25 C 123.949219 125.25 124.128906 125.238281 124.3125 125.222656 L 211.925781 129.230469 C 214.730469 137.179688 218.707031 144.523438 223.707031 151.035156 C 228.976562 157.890625 235.355469 163.855469 242.546875 168.660156 L 242.753906 190.121094 L 228.769531 190.121094 C 225.554688 190.121094 222.945312 192.722656 222.945312 195.953125 L 222.945312 228.183594 C 222.945312 231.402344 225.546875 234.015625 228.769531 234.015625 L 243.179688 234.015625 L 243.269531 242.789062 L 228.769531 242.789062 C 225.554688 242.789062 222.945312 245.390625 222.945312 248.621094 L 222.945312 280.851562 C 222.945312 284.070312 225.546875 286.683594 228.769531 286.683594 L 243.695312 286.683594 L 243.902344 308.351562 C 243.902344 312.949219 245.824219 317.066406 248.839844 320.074219 C 251.855469 323.09375 256.03125 324.945312 260.550781 324.945312 L 265.757812 324.945312 L 265.757812 336.394531 C 265.757812 347.09375 270.140625 356.761719 277.132812 363.824219 C 284.125 370.886719 293.851562 375.273438 304.464844 375.273438 L 346.941406 375.273438 C 350.15625 375.273438 352.765625 372.671875 352.765625 369.445312 C 352.773438 366.234375 350.175781 363.632812 346.949219 363.632812 Z M 234.613281 222.355469 L 234.613281 201.78125 L 242.761719 201.78125 L 242.972656 222.355469 Z M 234.613281 275.023438 L 234.613281 254.449219 L 243.316406 254.449219 L 243.523438 275.023438 Z M 94.660156 111.949219 C 94.523438 111.738281 94.386719 111.539062 94.316406 111.332031 C 93.699219 107.558594 93.699219 49.539062 94.316406 46.25 C 94.386719 45.976562 94.523438 45.769531 94.722656 45.5625 C 94.929688 45.425781 95.203125 45.289062 95.410156 45.289062 C 102.835938 44.945312 110.355469 44.5625 117.953125 44.144531 L 117.953125 113.261719 L 95.347656 112.230469 C 95.066406 112.21875 94.867188 112.15625 94.660156 111.949219 Z M 232.898438 143.972656 C 227.902344 137.453125 224.0625 129.980469 221.734375 121.957031 C 220.980469 119.492188 218.789062 117.914062 216.390625 117.777344 L 129.601562 113.796875 L 129.601562 43.484375 C 181.359375 40.5 235.824219 36.539062 285.445312 36.710938 C 303.742188 36.710938 320.316406 44.117188 332.304688 56.1875 C 344.296875 68.253906 351.695312 84.917969 351.757812 103.371094 C 351.757812 117.089844 347.648438 129.84375 340.59375 140.398438 C 333.960938 150.265625 324.804688 158.261719 314.101562 163.457031 C 313.792969 163.539062 313.496094 163.644531 313.195312 163.78125 C 308.949219 165.769531 304.429688 167.34375 299.703125 168.441406 C 295.109375 169.402344 290.320312 169.949219 285.457031 169.949219 C 279.152344 169.949219 272.984375 169.058594 267.234375 167.410156 C 261.636719 165.804688 256.292969 163.457031 251.410156 160.507812 C 251.367188 160.480469 251.320312 160.4375 251.277344 160.410156 C 244.128906 156.113281 237.898438 150.554688 232.898438 143.972656 Z M 260.566406 313.292969 C 259.199219 313.292969 257.894531 312.675781 257.007812 311.789062 C 256.121094 310.898438 255.503906 309.59375 255.503906 308.226562 L 255.234375 280.878906 C 255.234375 280.871094 255.234375 280.863281 255.234375 280.863281 L 255.207031 278.421875 L 254.164062 175.0625 C 257.335938 176.457031 260.621094 177.65625 264 178.605469 C 270.847656 180.59375 278.046875 181.625 285.4375 181.625 C 291.1875 181.625 296.8125 180.9375 302.21875 179.777344 C 303.449219 179.511719 304.671875 179.214844 305.886719 178.898438 L 289.140625 307.546875 C 288.933594 309.050781 288.117188 310.492188 286.878906 311.589844 C 285.710938 312.613281 284.207031 313.304688 282.703125 313.304688 L 272.449219 313.304688 C 272.167969 313.265625 271.890625 313.230469 271.597656 313.230469 C 271.308594 313.230469 271.027344 313.257812 270.746094 313.304688 L 260.566406 313.304688 Z M 285.4375 145.140625 C 296.875 145.140625 307.292969 140.410156 314.828125 132.863281 C 322.363281 125.320312 327.015625 114.894531 327.015625 103.378906 C 327.015625 91.863281 322.359375 81.4375 314.828125 73.894531 C 307.292969 66.277344 296.875 61.617188 285.4375 61.617188 C 273.925781 61.617188 263.582031 66.277344 256.046875 73.894531 C 248.511719 81.4375 243.859375 91.863281 243.859375 103.378906 C 243.859375 114.894531 248.511719 125.320312 256.046875 132.863281 C 263.582031 140.472656 274 145.140625 285.4375 145.140625 Z M 285.363281 133.34375 C 277.078125 133.34375 269.605469 129.980469 264.199219 124.570312 C 260.089844 120.453125 257.171875 115.101562 256.003906 109.136719 L 314.734375 109.136719 C 313.566406 115.101562 310.652344 120.453125 306.539062 124.570312 C 301.125 129.980469 293.660156 133.34375 285.363281 133.34375 Z M 264.199219 82.046875 C 269.617188 76.625 277.078125 73.269531 285.363281 73.269531 C 293.652344 73.269531 301.125 76.632812 306.53125 82.046875 C 310.640625 86.160156 313.558594 91.503906 314.726562 97.476562 L 256.003906 97.476562 C 257.171875 91.511719 260.089844 86.160156 264.199219 82.046875 Z M 55.0625 102.273438 C 57.183594 104.675781 56.984375 108.375 54.585938 110.507812 C 52.183594 112.628906 48.488281 112.429688 46.359375 110.027344 C 45.128906 108.65625 43.960938 107.488281 42.800781 106.734375 C 41.914062 106.179688 40.882812 105.84375 39.785156 105.84375 C 38.691406 105.84375 37.667969 106.191406 36.707031 106.808594 C 35.476562 107.558594 34.304688 108.730469 33.148438 110.027344 C 31.300781 112.148438 29.308594 114.003906 26.917969 115.449219 C 24.246094 117.097656 21.300781 118.050781 17.804688 118.050781 C 14.308594 118.050781 11.292969 116.953125 8.621094 115.300781 C 6.222656 113.933594 4.238281 112.011719 2.527344 110.089844 C 0.40625 107.6875 0.605469 103.988281 3.007812 101.855469 C 5.40625 99.734375 9.101562 99.933594 11.230469 102.335938 C 12.398438 103.640625 13.558594 104.804688 14.789062 105.554688 C 15.75 106.097656 16.773438 106.515625 17.867188 106.515625 C 19.035156 106.515625 19.988281 106.171875 20.882812 105.628906 C 22.054688 104.875 23.285156 103.707031 24.445312 102.335938 C 26.15625 100.351562 28.140625 98.492188 30.539062 96.988281 C 33.210938 95.335938 36.226562 94.238281 39.722656 94.238281 C 43.21875 94.238281 46.160156 95.203125 48.832031 96.84375 C 51.234375 98.300781 53.214844 100.214844 55.0625 102.273438 Z M 55.0625 33.011719 C 57.183594 35.414062 56.984375 39.113281 54.585938 41.246094 C 52.183594 43.367188 48.488281 43.167969 46.359375 40.765625 C 45.128906 39.394531 43.960938 38.226562 42.800781 37.472656 C 41.914062 36.929688 40.882812 36.585938 39.785156 36.585938 C 38.691406 36.585938 37.667969 36.929688 36.707031 37.546875 C 35.476562 38.296875 34.304688 39.46875 33.148438 40.765625 C 31.300781 42.886719 29.308594 44.746094 26.917969 46.1875 C 24.246094 47.835938 21.300781 48.789062 17.804688 48.789062 C 14.308594 48.789062 11.292969 47.691406 8.621094 46.042969 C 6.222656 44.671875 4.238281 42.8125 2.527344 40.828125 C 0.40625 38.425781 0.605469 34.726562 3.007812 32.59375 C 5.40625 30.472656 9.101562 30.671875 11.230469 33.074219 C 12.398438 34.382812 13.558594 35.542969 14.789062 36.292969 C 15.75 36.839844 16.773438 37.253906 17.867188 37.253906 C 19.035156 37.253906 19.988281 36.910156 20.882812 36.367188 C 22.054688 35.613281 23.285156 34.445312 24.445312 33.074219 C 26.15625 31.089844 28.140625 29.230469 30.539062 27.726562 C 33.210938 26.085938 36.226562 24.988281 39.722656 24.988281 C 43.21875 24.988281 46.160156 25.949219 48.832031 27.589844 C 51.234375 29.03125 53.214844 30.953125 55.0625 33.011719 Z M 55.0625 67.648438 C 57.183594 70.050781 56.984375 73.75 54.585938 75.878906 C 52.183594 78 48.488281 77.800781 46.359375 75.398438 C 45.128906 74.03125 43.960938 72.859375 42.800781 72.109375 C 41.914062 71.5625 40.882812 71.21875 39.785156 71.21875 C 38.691406 71.21875 37.667969 71.5625 36.707031 72.179688 C 35.476562 72.933594 34.304688 74.101562 33.148438 75.398438 C 31.300781 77.519531 29.308594 79.378906 26.917969 80.820312 C 24.246094 82.472656 21.300781 83.421875 17.804688 83.421875 C 14.308594 83.421875 11.292969 82.328125 8.621094 80.675781 C 6.222656 79.308594 4.238281 77.386719 2.527344 75.460938 C 0.40625 73.058594 0.605469 69.359375 3.007812 67.230469 C 5.40625 65.109375 9.101562 65.308594 11.230469 67.710938 C 12.398438 69.015625 13.558594 70.175781 14.789062 70.929688 C 15.75 71.472656 16.773438 71.890625 17.867188 71.890625 C 19.035156 71.890625 19.988281 71.546875 20.882812 71.003906 C 22.054688 70.25 23.285156 69.078125 24.445312 67.710938 C 26.15625 65.726562 28.140625 63.867188 30.539062 62.359375 C 33.210938 60.710938 36.226562 59.613281 39.722656 59.613281 C 43.21875 59.613281 46.160156 60.574219 48.832031 62.214844 C 51.234375 63.667969 53.214844 65.589844 55.0625 67.648438 Z M 55.0625 67.648438 " fill-opacity="1" fill-rule="nonzero"/></g></svg>