<svg xmlns="http://www.w3.org/2000/svg" xmlns:xlink="http://www.w3.org/1999/xlink" width="500" zoomAndPan="magnify" viewBox="0 0 375 374.999991" height="500" preserveAspectRatio="xMidYMid meet" version="1.0"><defs><clipPath id="38d05ee9d0"><path d="M 5.816406 23.523438 L 368.816406 23.523438 L 368.816406 375 L 5.816406 375 Z M 5.816406 23.523438 " clip-rule="nonzero"/></clipPath></defs><rect x="-37.5" width="450" fill="#ffffff" y="-37.499999" height="449.999989" fill-opacity="1"/><rect x="-37.5" width="450" fill="#ffffff" y="-37.499999" height="449.999989" fill-opacity="1"/><g clip-path="url(#38d05ee9d0)"><path fill="#000000" d="M 291.070312 139.679688 L 291.070312 139.199219 C 291.070312 135.96875 293.675781 133.351562 296.90625 133.351562 C 300.128906 133.351562 302.742188 135.960938 302.742188 139.199219 L 302.742188 139.679688 C 302.742188 142.90625 300.136719 145.523438 296.90625 145.523438 C 293.675781 145.515625 291.070312 142.90625 291.070312 139.679688 Z M 275.289062 145.515625 C 278.511719 145.515625 281.125 142.90625 281.125 139.671875 L 281.125 139.1875 C 281.125 135.960938 278.519531 133.34375 275.289062 133.34375 C 272.066406 133.34375 269.453125 135.953125 269.453125 139.1875 L 269.453125 139.671875 C 269.453125 142.90625 272.058594 145.515625 275.289062 145.515625 Z M 253.671875 145.515625 C 256.894531 145.515625 259.507812 142.90625 259.507812 139.671875 L 259.507812 139.1875 C 259.507812 135.960938 256.902344 133.34375 253.671875 133.34375 C 250.453125 133.34375 247.835938 135.953125 247.835938 139.1875 L 247.835938 139.671875 C 247.835938 142.90625 250.453125 145.515625 253.671875 145.515625 Z M 368.816406 241.691406 C 368.816406 246.519531 366.882812 250.9375 363.808594 254.203125 C 366.882812 257.464844 368.816406 261.886719 368.816406 266.710938 L 368.816406 280.050781 C 368.816406 284.785156 366.9375 289.121094 363.960938 292.378906 C 366.957031 295.570312 368.816406 299.839844 368.816406 304.523438 L 368.816406 357.179688 C 368.816406 362.0625 366.828125 366.527344 363.597656 369.761719 C 360.375 372.992188 355.910156 375.054688 351.039062 375.054688 L 91.730469 375.054688 C 91.613281 375.054688 91.511719 374.992188 91.386719 374.980469 L 24.066406 374.980469 C 19.058594 374.980469 14.527344 372.917969 11.160156 369.554688 C 7.875 366.253906 5.816406 361.652344 5.816406 356.636719 L 5.816406 343.296875 C 5.816406 338.488281 7.742188 334.089844 10.796875 330.824219 C 7.742188 327.550781 5.816406 323.152344 5.816406 318.34375 L 5.816406 305.003906 C 5.816406 300.25 7.703125 295.90625 10.707031 292.648438 C 7.695312 289.449219 5.816406 285.160156 5.816406 280.46875 L 5.816406 227.8125 C 5.816406 222.929688 7.804688 218.464844 11.035156 215.226562 C 13.53125 212.726562 16.742188 210.957031 20.347656 210.273438 L 20.4375 210.011719 C 22.695312 203.0625 24.421875 198.253906 26.199219 193.925781 C 28.324219 188.699219 30.320312 184.371094 33.195312 178.253906 C 33.332031 177.953125 33.53125 177.726562 33.703125 177.460938 C 45.902344 153.5625 62.035156 135.507812 82.183594 123.324219 C 102.492188 111.085938 126.714844 104.90625 154.917969 104.757812 L 181.679688 104.757812 L 181.679688 100.976562 C 181.679688 94.167969 184.496094 87.914062 188.960938 83.375 C 193.425781 78.839844 199.59375 76.023438 206.390625 76.023438 L 228.355469 76.023438 C 235.152344 76.023438 241.320312 78.839844 245.851562 83.375 C 250.304688 87.914062 253.128906 94.105469 253.128906 100.976562 L 253.128906 104.757812 L 294.964844 104.757812 L 284.828125 59.382812 L 144.980469 59.382812 C 140.109375 59.382812 135.714844 57.394531 132.496094 54.15625 C 129.273438 50.929688 127.347656 46.527344 127.347656 41.648438 C 127.347656 36.765625 129.335938 32.363281 132.496094 29.136719 C 135.714844 25.910156 140.109375 23.910156 144.980469 23.910156 L 298.140625 23.910156 C 302.398438 23.699219 306.445312 25.082031 309.664062 27.554688 L 309.875 27.765625 C 312.894531 30.175781 315.230469 33.675781 316.117188 37.800781 L 332.109375 109.296875 C 332.152344 109.496094 332.097656 109.6875 332.117188 109.886719 L 347.679688 179.554688 C 347.71875 179.707031 347.664062 179.84375 347.691406 180 L 354.515625 210.472656 C 357.9375 211.246094 361.019531 212.984375 363.472656 215.4375 C 366.765625 218.738281 368.824219 223.347656 368.824219 228.367188 L 368.824219 241.691406 Z M 193.351562 104.6875 L 241.457031 104.6875 L 241.457031 100.90625 C 241.457031 97.257812 240.015625 93.957031 237.621094 91.558594 C 235.214844 89.148438 231.921875 87.714844 228.355469 87.714844 L 206.390625 87.714844 C 202.824219 87.714844 199.53125 89.222656 197.199219 91.558594 C 194.792969 93.96875 193.359375 97.269531 193.359375 100.90625 L 193.359375 104.6875 Z M 342.589844 210 L 337.390625 186.625 L 42.253906 186.625 C 40.191406 190.953125 38.613281 194.464844 37.105469 198.308594 C 35.746094 201.574219 34.457031 205.253906 32.832031 209.929688 L 282.902344 209.929688 C 283.023438 209.929688 283.121094 209.992188 283.238281 209.992188 L 342.589844 209.992188 Z M 295.117188 52.300781 L 306.851562 104.6875 L 319.203125 104.6875 L 304.792969 40.273438 C 304.449219 38.902344 303.695312 37.730469 302.667969 36.902344 L 302.597656 36.828125 C 301.5 36 300.128906 35.519531 298.683594 35.59375 L 144.980469 35.59375 C 143.339844 35.59375 141.824219 36.285156 140.726562 37.382812 C 139.628906 38.484375 138.9375 39.992188 138.9375 41.710938 C 138.9375 43.429688 139.628906 44.9375 140.726562 46.039062 C 141.824219 47.136719 143.265625 47.828125 144.980469 47.828125 L 289.429688 47.828125 C 292.03125 47.703125 294.5 49.554688 295.117188 52.300781 Z M 48.40625 174.871094 L 334.695312 174.871094 L 321.597656 116.441406 L 154.917969 116.441406 C 128.910156 116.578125 106.675781 122.214844 88.21875 133.351562 C 72.191406 143.035156 58.960938 156.824219 48.40625 174.871094 Z M 17.550781 280.46875 C 17.550781 282.1875 18.242188 283.695312 19.339844 284.867188 C 20.4375 285.96875 21.941406 286.660156 23.59375 286.660156 L 24.066406 286.660156 C 24.066406 286.660156 24.074219 286.660156 24.074219 286.660156 L 350.902344 286.660156 C 352.554688 286.566406 354.078125 285.894531 355.167969 284.804688 C 356.339844 283.632812 357.089844 281.914062 357.089844 280.058594 L 357.089844 266.722656 C 357.089844 264.867188 356.339844 263.210938 355.167969 261.976562 C 353.996094 260.804688 352.355469 260.046875 350.566406 260.046875 L 56.527344 260.046875 C 53.304688 260.046875 50.691406 257.4375 50.691406 254.203125 C 50.691406 250.976562 53.296875 248.355469 56.527344 248.355469 L 350.566406 248.355469 C 352.355469 248.355469 353.996094 247.601562 355.167969 246.429688 C 356.339844 245.257812 357.089844 243.539062 357.089844 241.683594 L 357.089844 228.355469 C 357.089844 226.5 356.339844 224.847656 355.167969 223.609375 C 353.996094 222.4375 352.355469 221.683594 350.566406 221.683594 L 24.683594 221.683594 C 24.566406 221.683594 24.464844 221.621094 24.347656 221.621094 L 23.585938 221.621094 C 21.941406 221.621094 20.425781 222.308594 19.328125 223.410156 C 18.230469 224.511719 17.542969 226.09375 17.542969 227.8125 L 17.542969 280.46875 Z M 357.082031 304.523438 C 357.082031 302.804688 356.394531 301.296875 355.292969 300.125 C 354.214844 299.042969 352.726562 298.367188 351.101562 298.351562 C 350.921875 298.359375 350.75 298.40625 350.566406 298.40625 L 138.875 298.40625 C 138.757812 298.40625 138.65625 298.339844 138.53125 298.332031 L 24.066406 298.332031 C 22.277344 298.332031 20.636719 299.085938 19.464844 300.257812 C 18.292969 301.433594 17.542969 303.152344 17.542969 305.003906 L 17.542969 318.34375 C 17.542969 320.195312 18.292969 321.851562 19.464844 323.089844 C 20.582031 324.207031 22.152344 324.90625 23.839844 324.96875 C 23.914062 324.96875 23.984375 324.941406 24.058594 324.941406 L 235.75 324.941406 C 235.867188 324.941406 235.96875 325.007812 236.09375 325.015625 L 318.097656 325.015625 C 321.316406 325.015625 323.933594 327.625 323.933594 330.859375 C 323.933594 334.089844 321.328125 336.707031 318.097656 336.707031 L 24.066406 336.707031 C 23.992188 336.707031 23.921875 336.6875 23.839844 336.6875 C 22.140625 336.753906 20.582031 337.453125 19.464844 338.570312 C 18.292969 339.742188 17.542969 341.460938 17.542969 343.316406 L 17.542969 356.636719 C 17.542969 358.488281 18.292969 360.144531 19.464844 361.378906 C 20.636719 362.554688 22.277344 363.308594 24.066406 363.308594 L 235.757812 363.308594 C 235.878906 363.308594 235.976562 363.371094 236.105469 363.382812 L 351.046875 363.382812 C 352.691406 363.382812 354.207031 362.691406 355.304688 361.589844 C 356.402344 360.488281 357.089844 358.90625 357.089844 357.191406 L 357.089844 304.523438 Z M 357.082031 304.523438 " fill-opacity="1" fill-rule="nonzero"/></g></svg>