<svg xmlns="http://www.w3.org/2000/svg" xmlns:xlink="http://www.w3.org/1999/xlink" width="500" zoomAndPan="magnify" viewBox="0 0 375 374.999991" height="500" preserveAspectRatio="xMidYMid meet" version="1.0"><defs><clipPath id="92a22c5794"><path d="M 6 24.523438 L 368.992188 24.523438 L 368.992188 374.773438 L 6 374.773438 Z M 6 24.523438 " clip-rule="nonzero"/></clipPath></defs><rect x="-37.5" width="450" fill="#ffffff" y="-37.499999" height="449.999989" fill-opacity="1"/><rect x="-37.5" width="450" fill="#ffffff" y="-37.499999" height="449.999989" fill-opacity="1"/><g clip-path="url(#92a22c5794)"><path fill="#000000" d="M 196.789062 58.1875 L 196.789062 57.707031 C 196.789062 54.488281 199.394531 51.878906 202.625 51.878906 C 205.84375 51.878906 208.457031 54.480469 208.457031 57.707031 L 208.457031 58.1875 C 208.457031 61.40625 205.851562 64.019531 202.625 64.019531 C 199.394531 64.019531 196.789062 61.414062 196.789062 58.1875 Z M 309.585938 64.019531 C 312.804688 64.019531 315.417969 61.414062 315.417969 58.1875 L 315.417969 57.707031 C 315.417969 54.488281 312.816406 51.878906 309.585938 51.878906 C 306.355469 51.878906 303.753906 54.480469 303.753906 57.707031 L 303.753906 58.1875 C 303.753906 61.414062 306.363281 64.019531 309.585938 64.019531 Z M 119.9375 117.367188 C 123.160156 117.367188 125.773438 114.765625 125.773438 111.535156 L 125.773438 83.972656 C 125.773438 80.753906 123.167969 78.144531 119.9375 78.144531 C 116.71875 78.144531 114.105469 80.746094 114.105469 83.972656 L 114.105469 111.535156 C 114.113281 114.765625 116.71875 117.367188 119.9375 117.367188 Z M 119.9375 196.019531 C 116.71875 196.019531 114.105469 198.625 114.105469 201.851562 L 114.105469 332.339844 C 114.105469 335.558594 116.710938 338.171875 119.9375 338.171875 C 123.160156 338.171875 125.773438 335.566406 125.773438 332.339844 L 125.773438 201.851562 C 125.773438 198.625 123.167969 196.019531 119.9375 196.019531 Z M 256.894531 341.316406 L 256.894531 283.515625 C 256.894531 280.296875 259.496094 277.6875 262.726562 277.6875 L 325.988281 277.6875 C 329.207031 277.6875 331.820312 280.289062 331.820312 283.515625 L 331.820312 341.316406 C 331.820312 344.535156 329.21875 347.148438 325.988281 347.148438 L 262.726562 347.148438 C 259.496094 347.148438 256.894531 344.542969 256.894531 341.316406 Z M 268.625 335.496094 L 320.21875 335.496094 L 320.21875 289.347656 L 268.625 289.347656 Z M 187.390625 266.578125 C 190.613281 266.578125 193.226562 263.976562 193.226562 260.75 L 193.226562 260.269531 C 193.226562 257.050781 190.621094 254.4375 187.390625 254.4375 C 184.160156 254.4375 181.558594 257.039062 181.558594 260.269531 L 181.558594 260.75 C 181.558594 263.976562 184.160156 266.578125 187.390625 266.578125 Z M 187.390625 326.71875 C 184.171875 326.71875 181.558594 329.320312 181.558594 332.550781 L 181.558594 333.03125 C 181.558594 336.25 184.160156 338.859375 187.390625 338.859375 C 190.621094 338.859375 193.226562 336.257812 193.226562 333.03125 L 193.226562 332.550781 C 193.214844 329.320312 190.613281 326.71875 187.390625 326.71875 Z M 264.714844 103.105469 L 264.714844 91.308594 L 193.226562 91.308594 L 193.226562 134.347656 L 209.347656 167.769531 C 210.714844 170.652344 209.554688 174.144531 206.597656 175.519531 C 205.773438 175.929688 204.945312 176.074219 204.058594 176.074219 L 170.570312 176.074219 C 167.351562 176.074219 164.738281 173.472656 164.738281 170.246094 C 164.738281 169.21875 165.011719 168.1875 165.492188 167.359375 L 181.550781 134.003906 L 181.550781 91.308594 L 154.929688 91.308594 L 154.929688 218.507812 L 264.777344 218.507812 L 264.777344 188.886719 L 258.597656 188.886719 C 255.378906 188.886719 252.765625 186.285156 252.765625 183.054688 C 252.765625 179.835938 255.371094 177.226562 258.597656 177.226562 L 264.777344 177.226562 L 264.777344 173.109375 C 264.777344 169.890625 267.382812 167.28125 270.609375 167.28125 L 318.230469 167.28125 C 321.453125 167.28125 324.066406 169.882812 324.066406 173.109375 L 324.066406 177.226562 L 330.171875 177.226562 C 333.390625 177.226562 336.003906 179.828125 336.003906 183.054688 C 336.003906 186.273438 333.398438 188.886719 330.171875 188.886719 L 324.066406 188.886719 L 324.066406 218.507812 L 363.101562 218.507812 C 366.324219 218.507812 368.9375 221.109375 368.9375 224.335938 L 368.9375 368.953125 C 368.9375 372.171875 366.332031 374.78125 363.101562 374.78125 L 11.878906 374.78125 C 8.660156 374.78125 6.046875 372.179688 6.046875 368.953125 L 6.046875 30.417969 C 6.046875 27.199219 8.648438 24.585938 11.878906 24.585938 L 148.835938 24.585938 C 148.953125 24.578125 149.050781 24.515625 149.179688 24.515625 L 363.101562 24.515625 C 366.324219 24.515625 368.9375 27.117188 368.9375 30.34375 L 368.9375 85.480469 C 368.9375 88.699219 366.332031 91.308594 363.101562 91.308594 L 324.128906 91.308594 L 324.128906 103.105469 L 340.804688 103.105469 C 342.039062 103.105469 343.207031 103.511719 344.167969 104.128906 L 366.261719 118.183594 C 367.976562 119.351562 368.9375 121.203125 368.9375 123.125 L 368.9375 130.460938 C 368.9375 133.679688 366.332031 136.289062 363.101562 136.289062 L 225.675781 136.289062 C 222.457031 136.289062 219.84375 133.6875 219.84375 130.460938 L 219.84375 123.125 C 219.84375 120.929688 221.011719 119.082031 222.792969 118.046875 L 244.882812 103.992188 C 245.84375 103.378906 246.941406 103.105469 247.96875 103.105469 Z M 194.867188 164.542969 L 187.390625 149.046875 L 179.914062 164.542969 Z M 17.714844 36.246094 L 17.714844 159.328125 L 143.273438 159.328125 L 143.273438 36.246094 Z M 143.273438 363.121094 L 143.273438 171.058594 L 17.714844 171.058594 L 17.714844 363.132812 L 143.273438 363.132812 Z M 154.929688 363.121094 L 219.832031 363.121094 L 219.832031 302.511719 L 154.929688 302.511719 Z M 357.269531 261.636719 L 231.511719 261.636719 L 231.511719 363.121094 L 357.277344 363.121094 L 357.277344 261.636719 Z M 357.269531 230.167969 L 231.5 230.167969 L 231.5 249.988281 L 244.945312 249.988281 L 244.945312 247.792969 C 244.945312 244.574219 247.550781 241.960938 250.777344 241.960938 C 254.007812 241.960938 256.613281 244.566406 256.613281 247.792969 L 256.613281 249.988281 L 274.039062 249.988281 L 274.039062 247.792969 C 274.039062 244.574219 276.644531 241.960938 279.875 241.960938 C 283.105469 241.960938 285.707031 244.566406 285.707031 247.792969 L 285.707031 249.988281 L 303.0625 249.988281 L 303.0625 247.792969 C 303.0625 244.574219 305.667969 241.960938 308.894531 241.960938 C 312.117188 241.960938 314.730469 244.566406 314.730469 247.792969 L 314.730469 249.988281 L 332.15625 249.988281 L 332.15625 247.792969 C 332.15625 244.574219 334.761719 241.960938 337.992188 241.960938 C 341.210938 241.960938 343.824219 244.566406 343.824219 247.792969 L 343.824219 249.988281 L 357.269531 249.988281 Z M 276.382812 218.507812 L 312.335938 218.507812 L 312.335938 178.941406 L 276.382812 178.941406 L 276.382812 182.710938 C 276.390625 182.828125 276.453125 182.929688 276.453125 183.046875 C 276.453125 183.164062 276.390625 183.265625 276.382812 183.382812 Z M 154.929688 230.167969 L 154.929688 290.789062 L 219.832031 290.789062 L 219.832031 230.167969 Z M 250.234375 36.183594 L 154.929688 36.183594 L 154.929688 79.660156 L 250.234375 79.660156 Z M 261.964844 79.660156 L 357.269531 79.660156 L 357.269531 36.183594 L 261.964844 36.183594 Z M 276.308594 91.308594 L 276.308594 103.105469 L 312.398438 103.105469 L 312.398438 91.308594 Z M 339.160156 114.765625 L 249.691406 114.765625 L 234.113281 124.636719 L 354.664062 124.636719 Z M 339.160156 114.765625 " fill-opacity="1" fill-rule="nonzero"/></g></svg>