<svg xmlns="http://www.w3.org/2000/svg" xmlns:xlink="http://www.w3.org/1999/xlink" width="500" zoomAndPan="magnify" viewBox="0 0 375 374.999991" height="500" preserveAspectRatio="xMidYMid meet" version="1.0"><defs><clipPath id="ce950cc029"><path d="M 3.503906 24.40625 L 371.753906 24.40625 L 371.753906 374.65625 L 3.503906 374.65625 Z M 3.503906 24.40625 " clip-rule="nonzero"/></clipPath></defs><rect x="-37.5" width="450" fill="#ffffff" y="-37.499999" height="449.999989" fill-opacity="1"/><rect x="-37.5" width="450" fill="#ffffff" y="-37.499999" height="449.999989" fill-opacity="1"/><g clip-path="url(#ce950cc029)"><path fill="#000000" d="M 365.835938 362.808594 L 300.664062 362.808594 L 300.664062 177.894531 C 319.546875 176.453125 336.578125 168.261719 349.191406 155.671875 C 363.117188 141.765625 371.746094 122.511719 371.746094 101.320312 C 371.746094 80.125 363.109375 60.863281 349.191406 46.964844 C 335.269531 33.070312 315.984375 24.449219 294.742188 24.449219 C 273.503906 24.449219 254.21875 33.070312 240.296875 46.964844 C 226.371094 60.871094 217.742188 80.125 217.742188 101.320312 C 217.742188 122.511719 226.378906 141.777344 240.296875 155.671875 C 252.910156 168.261719 269.953125 176.453125 288.824219 177.894531 L 288.824219 362.808594 L 250.113281 362.808594 L 250.113281 338.132812 L 267.308594 338.132812 C 270.578125 338.132812 273.230469 335.496094 273.230469 332.222656 L 273.230469 241.097656 C 273.230469 237.835938 270.585938 235.1875 267.308594 235.1875 L 251.105469 235.1875 L 218.996094 147.960938 C 218.09375 145.527344 215.863281 144.0625 213.425781 144.0625 L 63.457031 144.0625 C 60.8125 144.0625 58.585938 145.875 57.8125 148.300781 L 25.820312 235.1875 L 9.488281 235.1875 C 6.21875 235.1875 3.570312 237.828125 3.570312 241.097656 L 3.570312 332.222656 C 3.570312 335.484375 6.210938 338.132812 9.488281 338.132812 L 26.613281 338.132812 L 26.613281 362.808594 L 9.425781 362.808594 C 6.15625 362.808594 3.503906 365.449219 3.503906 368.71875 C 3.503906 371.992188 6.144531 374.628906 9.425781 374.628906 L 365.835938 374.628906 C 369.101562 374.628906 371.753906 371.992188 371.753906 368.71875 C 371.753906 365.449219 369.113281 362.808594 365.835938 362.808594 Z M 229.582031 101.328125 C 229.582031 83.324219 236.890625 67.066406 248.65625 55.3125 C 260.421875 43.566406 276.71875 36.269531 294.753906 36.269531 C 312.789062 36.269531 329.074219 43.566406 340.847656 55.3125 C 352.6875 67.128906 359.996094 83.386719 359.925781 101.328125 C 359.925781 119.332031 352.613281 135.589844 340.847656 147.34375 C 329.082031 159.101562 312.789062 166.386719 294.753906 166.386719 C 276.71875 166.386719 260.433594 159.089844 248.65625 147.34375 C 236.890625 135.589844 229.582031 119.324219 229.582031 101.328125 Z M 197.902344 362.808594 L 197.902344 338.132812 L 238.28125 338.132812 L 238.28125 362.808594 Z M 67.421875 155.882812 L 209.253906 155.882812 L 238.429688 235.1875 L 38.25 235.1875 Z M 15.40625 247.007812 L 261.398438 247.007812 L 261.398438 326.3125 L 15.417969 326.3125 L 15.417969 247.007812 Z M 78.839844 338.132812 L 78.839844 362.808594 L 38.460938 362.808594 L 38.460938 338.132812 Z M 90.679688 338.132812 L 186.0625 338.132812 L 186.0625 362.808594 L 90.679688 362.808594 Z M 40.6875 303.171875 C 44.933594 307.410156 50.789062 310.054688 57.257812 310.054688 C 63.730469 310.054688 69.585938 307.417969 73.832031 303.171875 C 78.074219 298.933594 80.726562 293.027344 80.726562 286.628906 C 80.726562 280.371094 78.285156 274.746094 74.253906 270.5 L 73.90625 270.148438 C 69.660156 265.914062 63.804688 263.265625 57.332031 263.265625 C 50.925781 263.265625 45.078125 265.902344 40.761719 270.148438 C 36.519531 274.386719 33.867188 280.296875 33.867188 286.691406 C 33.867188 292.953125 36.304688 298.578125 40.339844 302.824219 Z M 49.113281 278.496094 C 51.203125 276.410156 54.128906 275.085938 57.324219 275.085938 C 60.527344 275.085938 63.457031 276.410156 65.535156 278.496094 L 65.8125 278.769531 C 67.765625 280.855469 68.941406 283.632812 68.941406 286.691406 C 68.941406 289.957031 67.691406 292.8125 65.601562 294.890625 C 63.511719 296.96875 60.582031 298.300781 57.386719 298.300781 C 54.183594 298.300781 51.257812 296.976562 49.175781 294.890625 L 48.898438 294.617188 C 46.949219 292.527344 45.769531 289.753906 45.769531 286.691406 C 45.769531 283.429688 47.023438 280.582031 49.113281 278.496094 Z M 219.484375 310.054688 C 225.953125 310.054688 231.808594 307.417969 236.054688 303.171875 L 236.402344 302.824219 C 240.371094 298.648438 242.875 292.953125 242.875 286.691406 C 242.875 280.230469 240.234375 274.386719 235.980469 270.148438 C 231.738281 265.914062 225.882812 263.265625 219.410156 263.265625 C 212.9375 263.265625 207.082031 265.902344 202.839844 270.148438 L 202.488281 270.5 C 198.519531 274.671875 196.015625 280.371094 196.015625 286.628906 C 196.015625 293.089844 198.660156 298.933594 202.910156 303.171875 C 207.15625 307.410156 213.011719 310.054688 219.484375 310.054688 Z M 210.921875 278.769531 L 211.199219 278.496094 C 213.285156 276.410156 216.214844 275.085938 219.410156 275.085938 C 222.539062 275.085938 225.46875 276.410156 227.621094 278.496094 C 229.710938 280.582031 230.964844 283.503906 230.964844 286.691406 C 230.964844 289.753906 229.777344 292.527344 227.832031 294.617188 L 227.558594 294.890625 C 225.46875 296.976562 222.539062 298.300781 219.34375 298.300781 C 216.140625 298.300781 213.214844 296.976562 211.132812 294.890625 C 209.042969 292.804688 207.789062 289.882812 207.789062 286.691406 C 207.78125 283.640625 208.96875 280.855469 210.921875 278.769531 Z M 316.886719 106.117188 C 320.503906 102.570312 322.730469 97.570312 322.730469 92.148438 L 322.730469 78.726562 C 322.730469 73.304688 320.503906 68.371094 316.886719 64.757812 C 313.332031 61.148438 308.324219 58.921875 302.890625 58.921875 L 280.613281 58.921875 C 277.34375 58.921875 274.691406 61.558594 274.691406 64.832031 L 274.691406 137.886719 C 274.691406 141.152344 277.335938 143.796875 280.613281 143.796875 C 283.878906 143.796875 286.53125 141.160156 286.53125 137.886719 L 286.53125 111.886719 L 302.890625 111.886719 C 308.324219 111.886719 313.339844 109.664062 316.886719 106.117188 Z M 286.53125 70.667969 L 302.890625 70.667969 C 305.046875 70.667969 307.070312 71.570312 308.535156 73.03125 C 310 74.492188 310.902344 76.503906 310.902344 78.664062 L 310.902344 92.082031 C 310.902344 94.234375 310 96.253906 308.535156 97.714844 C 307.070312 99.175781 305.054688 100.078125 302.890625 100.078125 L 286.53125 100.078125 Z M 286.53125 70.667969 " fill-opacity="1" fill-rule="nonzero"/></g></svg>