<svg xmlns="http://www.w3.org/2000/svg" xmlns:xlink="http://www.w3.org/1999/xlink" width="500" zoomAndPan="magnify" viewBox="0 0 375 374.999991" height="500" preserveAspectRatio="xMidYMid meet" version="1.0"><defs><clipPath id="e533c3e994"><path d="M 0 5.78125 L 375 5.78125 L 375 369.53125 L 0 369.53125 Z M 0 5.78125 " clip-rule="nonzero"/></clipPath></defs><rect x="-37.5" width="450" fill="#ffffff" y="-37.499999" height="449.999989" fill-opacity="1"/><rect x="-37.5" width="450" fill="#ffffff" y="-37.499999" height="449.999989" fill-opacity="1"/><g clip-path="url(#e533c3e994)"><path fill="#000000" d="M 225.785156 169.050781 C 231.683594 169.050781 236.8125 167.839844 241.425781 165.992188 C 245.835938 164.148438 249.75 161.722656 253.234375 159.167969 C 256.222656 156.957031 259.277344 155.042969 262.621094 153.691406 C 265.816406 152.410156 269.378906 151.628906 273.570312 151.628906 C 277.761719 151.628906 281.390625 152.488281 284.664062 153.839844 C 288.078125 155.191406 291.132812 157.113281 293.90625 159.175781 C 297.605469 161.949219 301.507812 164.367188 305.917969 166.152344 C 310.464844 167.925781 315.515625 169.070312 321.351562 169.070312 C 327.25 169.070312 332.378906 167.859375 336.996094 166.011719 C 341.402344 164.167969 345.320312 161.742188 348.800781 159.1875 C 351.789062 156.976562 354.847656 155.0625 358.1875 153.710938 C 361.382812 152.429688 364.945312 151.648438 369.136719 151.648438 C 372.480469 151.648438 375.183594 148.945312 375.183594 145.601562 C 375.183594 142.257812 372.480469 139.554688 369.136719 139.554688 C 363.375 139.554688 358.328125 140.621094 353.703125 142.394531 C 349.292969 144.171875 345.378906 146.667969 341.6875 149.371094 C 338.917969 151.433594 335.859375 153.355469 332.449219 154.707031 C 329.171875 156.058594 325.554688 156.917969 321.351562 156.917969 C 317.160156 156.917969 313.601562 156.136719 310.40625 154.855469 C 307.0625 153.503906 304.003906 151.582031 301.015625 149.382812 C 297.535156 146.816406 293.6875 144.328125 289.210938 142.554688 C 284.585938 140.710938 279.398438 139.496094 273.570312 139.496094 C 267.738281 139.496094 262.691406 140.5625 258.132812 142.417969 C 253.726562 144.191406 249.808594 146.6875 246.121094 149.390625 C 243.351562 151.453125 240.292969 153.375 236.878906 154.726562 C 233.605469 156.078125 229.988281 156.9375 225.785156 156.9375 C 223.722656 156.9375 221.949219 156.800781 220.3125 156.511719 C 220.035156 156.464844 219.796875 156.355469 219.53125 156.304688 L 219.53125 84.914062 L 295.1875 84.914062 C 295.199219 84.914062 295.207031 84.902344 295.226562 84.902344 C 295.246094 84.902344 295.246094 84.914062 295.265625 84.914062 L 369.214844 84.914062 C 372.558594 84.914062 375.261719 82.210938 375.261719 78.867188 C 375.261719 75.523438 372.558594 72.820312 369.214844 72.820312 L 301.234375 72.820312 L 301.234375 70.539062 C 301.234375 61.859375 299.527344 53.542969 296.332031 45.925781 C 293.058594 38.105469 288.226562 30.992188 282.328125 25.015625 L 282.109375 24.796875 C 276.132812 18.820312 269.101562 14.054688 261.203125 10.789062 C 253.585938 7.671875 245.273438 5.894531 236.59375 5.894531 C 227.914062 5.894531 219.601562 7.601562 211.988281 10.796875 C 204.097656 14.140625 196.988281 18.90625 191.011719 24.886719 L 190.941406 24.953125 C 185.574219 30.320312 181.195312 36.644531 177.980469 43.578125 C 174.757812 36.605469 170.367188 30.261719 164.992188 24.875 C 153.257812 13.144531 137.113281 5.894531 119.339844 5.894531 C 101.566406 5.894531 85.421875 13.144531 73.6875 24.886719 C 61.949219 36.625 54.699219 52.765625 54.699219 70.550781 L 54.699219 72.828125 L -13.203125 72.828125 C -16.546875 72.820312 -19.25 75.523438 -19.25 78.867188 C -19.25 82.210938 -16.546875 84.914062 -13.203125 84.914062 L 54.699219 84.914062 L 54.699219 149.5 C 51.996094 151.492188 49.007812 153.335938 45.667969 154.6875 C 42.390625 156.039062 38.773438 156.898438 34.570312 156.898438 C 30.378906 156.898438 26.820312 156.117188 23.625 154.835938 C 20.28125 153.484375 17.222656 151.5625 14.234375 149.359375 C 10.753906 146.796875 6.90625 144.308594 2.429688 142.535156 C -2.195312 140.691406 -7.382812 139.476562 -13.214844 139.476562 C -16.554688 139.476562 -19.257812 142.179688 -19.257812 145.523438 C -19.257812 148.867188 -16.554688 151.570312 -13.214844 151.570312 C -9.019531 151.570312 -5.390625 152.429688 -2.117188 153.78125 C 1.292969 155.132812 4.351562 157.054688 7.125 159.117188 C 10.820312 161.890625 14.726562 164.304688 19.136719 166.09375 C 23.683594 167.867188 28.730469 169.011719 34.570312 169.011719 C 40.46875 169.011719 45.597656 167.796875 50.210938 165.953125 C 51.800781 165.3125 53.242188 164.511719 54.691406 163.734375 L 54.691406 216.355469 C 51.988281 218.277344 49.03125 220.191406 45.726562 221.503906 C 42.449219 222.855469 38.832031 223.714844 34.628906 223.714844 C 30.4375 223.714844 26.878906 222.933594 23.683594 221.652344 C 20.339844 220.300781 17.28125 218.375 14.292969 216.175781 C 10.8125 213.613281 6.964844 211.125 2.488281 209.351562 C -2.136719 207.503906 -7.324219 206.292969 -13.152344 206.292969 C -16.496094 206.292969 -19.199219 208.996094 -19.199219 212.339844 C -19.199219 215.683594 -16.496094 218.386719 -13.152344 218.386719 C -8.960938 218.386719 -5.332031 219.246094 -2.058594 220.597656 C 1.355469 221.949219 4.410156 223.871094 7.183594 225.933594 C 10.882812 228.703125 14.785156 231.121094 19.195312 232.90625 C 23.742188 234.683594 28.792969 235.828125 34.628906 235.828125 C 40.527344 235.828125 45.65625 234.613281 50.273438 232.769531 C 54.679688 230.925781 58.597656 228.496094 62.078125 225.941406 C 65.066406 223.734375 68.125 221.820312 71.464844 220.46875 C 74.660156 219.183594 78.222656 218.40625 82.414062 218.40625 C 86.605469 218.40625 90.234375 219.265625 93.507812 220.617188 C 96.921875 221.96875 99.980469 223.890625 102.75 225.953125 C 106.449219 228.722656 110.355469 231.140625 114.761719 232.925781 C 119.308594 234.703125 124.359375 235.847656 130.199219 235.847656 C 136.09375 235.847656 141.222656 234.632812 145.839844 232.789062 C 150.25 230.945312 154.164062 228.515625 157.644531 225.960938 C 160.632812 223.753906 163.691406 221.839844 167.035156 220.488281 C 170.230469 219.203125 173.789062 218.425781 177.980469 218.425781 C 182.171875 218.425781 185.800781 219.285156 189.078125 220.636719 C 192.488281 221.988281 195.546875 223.910156 198.316406 225.972656 C 202.015625 228.746094 205.921875 231.160156 210.332031 232.945312 C 214.878906 234.722656 219.925781 235.867188 225.765625 235.867188 C 231.664062 235.867188 236.792969 234.652344 241.40625 232.808594 C 245.816406 230.964844 249.730469 228.539062 253.210938 225.980469 C 256.199219 223.773438 259.257812 221.859375 262.601562 220.507812 C 265.796875 219.226562 269.359375 218.445312 273.550781 218.445312 C 277.742188 218.445312 281.371094 219.304688 284.644531 220.65625 C 288.058594 222.007812 291.113281 223.929688 293.886719 225.992188 C 297.585938 228.765625 301.488281 231.179688 305.898438 232.964844 C 310.445312 234.742188 315.496094 235.886719 321.332031 235.886719 C 327.230469 235.886719 332.359375 234.671875 336.976562 232.828125 C 341.382812 230.984375 345.296875 228.558594 348.78125 226 C 351.769531 223.792969 354.824219 221.878906 358.167969 220.527344 C 361.363281 219.246094 364.925781 218.464844 369.117188 218.464844 C 372.460938 218.464844 375.164062 215.761719 375.164062 212.417969 C 375.164062 209.074219 372.460938 206.371094 369.117188 206.371094 C 363.355469 206.371094 358.308594 207.4375 353.683594 209.289062 C 349.273438 211.066406 345.359375 213.5625 341.667969 216.265625 C 338.898438 218.257812 335.839844 220.25 332.429688 221.601562 C 329.152344 222.953125 325.535156 223.8125 321.332031 223.8125 C 317.140625 223.8125 313.582031 223.03125 310.386719 221.75 C 307.042969 220.398438 303.984375 218.476562 300.996094 216.273438 C 297.515625 213.710938 293.667969 211.222656 289.191406 209.449219 C 284.566406 207.605469 279.378906 206.390625 273.550781 206.390625 C 267.71875 206.390625 262.671875 207.457031 258.113281 209.308594 C 253.707031 211.085938 249.789062 213.582031 246.101562 216.285156 C 243.332031 218.277344 240.273438 220.269531 236.859375 221.621094 C 233.585938 222.972656 229.964844 223.832031 225.765625 223.832031 C 223.496094 223.832031 221.445312 223.574219 219.511719 223.160156 L 219.511719 168.695312 C 221.574219 168.863281 223.625 169.050781 225.785156 169.050781 Z M 253.65625 72.820312 L 219.523438 72.820312 L 219.523438 70.539062 C 219.523438 68.191406 219.945312 65.992188 220.804688 64 C 221.664062 61.9375 222.933594 60.015625 224.503906 58.457031 C 226.070312 56.886719 227.984375 55.613281 230.046875 54.757812 C 232.039062 53.898438 234.238281 53.472656 236.585938 53.472656 C 238.933594 53.472656 241.132812 53.898438 243.125 54.757812 C 245.183594 55.613281 247.109375 56.886719 248.667969 58.457031 C 250.234375 60.023438 251.507812 61.867188 252.363281 64 C 253.222656 65.992188 253.648438 68.191406 253.648438 70.539062 L 253.648438 72.820312 Z M 102.277344 120.40625 L 171.964844 120.40625 L 171.964844 143.738281 L 102.277344 143.738281 Z M 171.957031 108.3125 L 102.265625 108.3125 L 102.265625 84.914062 L 171.957031 84.914062 Z M 136.402344 72.820312 L 102.265625 72.820312 L 102.265625 70.539062 C 102.265625 65.84375 104.191406 61.582031 107.246094 58.445312 C 110.304688 55.386719 114.574219 53.464844 119.339844 53.464844 C 124.035156 53.464844 128.292969 55.386719 131.429688 58.445312 C 134.488281 61.503906 136.410156 65.777344 136.410156 70.539062 L 136.410156 72.820312 Z M 102.277344 155.824219 L 171.964844 155.824219 L 171.964844 179.222656 L 102.277344 179.222656 Z M 67 209.171875 C 66.921875 209.203125 66.859375 209.25 66.78125 209.28125 L 66.78125 70.550781 C 66.78125 56.109375 72.679688 42.957031 82.214844 33.429688 C 91.742188 23.898438 104.902344 17.988281 119.328125 17.988281 C 133.769531 17.988281 146.914062 23.890625 156.453125 33.429688 C 165.980469 42.957031 171.886719 56.117188 171.886719 70.550781 L 171.886719 72.828125 L 148.492188 72.828125 L 148.492188 70.550781 C 148.492188 62.511719 145.21875 55.191406 139.960938 49.921875 C 134.695312 44.65625 127.378906 41.390625 119.339844 41.390625 C 111.300781 41.390625 103.984375 44.664062 98.714844 49.921875 C 93.449219 55.191406 90.1875 62.511719 90.1875 70.550781 L 90.1875 207.011719 C 87.730469 206.539062 85.15625 206.253906 82.433594 206.253906 C 76.605469 206.253906 71.554688 207.316406 67 209.171875 Z M 162.566406 209.171875 C 158.15625 210.949219 154.242188 213.445312 150.554688 216.148438 C 147.78125 218.140625 144.726562 220.132812 141.3125 221.484375 C 138.039062 222.835938 134.417969 223.691406 130.21875 223.691406 C 126.027344 223.691406 122.464844 222.914062 119.269531 221.632812 C 115.925781 220.28125 112.871094 218.355469 109.882812 216.15625 C 107.5625 214.449219 104.988281 212.871094 102.277344 211.410156 L 102.277344 191.328125 L 171.964844 191.328125 L 171.964844 206.824219 C 168.613281 207.289062 165.445312 208 162.566406 209.171875 Z M 193.644531 209.308594 C 190.714844 208.136719 187.519531 207.269531 184.117188 206.753906 L 184.117188 70.550781 C 184.117188 63.507812 185.535156 56.75 188.101562 50.5625 C 190.734375 44.09375 194.640625 38.332031 199.480469 33.496094 L 199.621094 33.429688 C 204.453125 28.59375 210.28125 24.609375 216.683594 21.976562 C 222.796875 19.410156 229.550781 17.988281 236.664062 17.988281 C 243.707031 17.988281 250.460938 19.410156 256.644531 21.976562 C 263.046875 24.679688 268.875 28.59375 273.707031 33.429688 L 273.777344 33.496094 C 278.609375 38.402344 282.523438 44.160156 285.15625 50.5625 C 287.722656 56.679688 289.140625 63.4375 289.140625 70.550781 L 289.140625 72.828125 L 265.746094 72.828125 L 265.746094 70.550781 C 265.746094 66.632812 264.96875 62.867188 263.539062 59.382812 C 262.050781 55.832031 259.910156 52.625 257.207031 49.921875 C 254.574219 47.21875 251.308594 45.089844 247.75 43.589844 C 244.265625 42.167969 240.5 41.378906 236.585938 41.378906 C 232.667969 41.378906 228.902344 42.160156 225.421875 43.589844 C 221.871094 45.078125 218.664062 47.21875 215.960938 49.921875 C 213.257812 52.554688 211.128906 55.820312 209.628906 59.382812 C 208.210938 62.867188 207.421875 66.632812 207.421875 70.550781 L 207.421875 161.042969 C 207.421875 161.082031 207.421875 161.109375 207.421875 161.140625 L 207.421875 217.457031 C 206.761719 217.003906 206.078125 216.601562 205.429688 216.125 C 201.96875 213.582031 198.121094 211.085938 193.644531 209.308594 Z M 375.183594 279.015625 C 375.183594 282.359375 372.480469 285.0625 369.136719 285.0625 C 364.945312 285.0625 361.382812 285.84375 358.1875 287.125 C 354.847656 288.476562 351.789062 290.398438 348.800781 292.601562 C 345.320312 295.164062 341.402344 297.582031 336.996094 299.425781 C 332.367188 301.269531 327.25 302.484375 321.351562 302.484375 C 315.523438 302.484375 310.472656 301.351562 305.917969 299.566406 C 301.507812 297.789062 297.59375 295.371094 293.90625 292.589844 C 291.132812 290.527344 288.078125 288.605469 284.664062 287.253906 C 281.390625 285.902344 277.769531 285.121094 273.570312 285.121094 C 269.378906 285.121094 265.816406 285.902344 262.621094 287.183594 C 259.277344 288.535156 256.222656 290.460938 253.234375 292.660156 C 249.75 295.222656 245.835938 297.640625 241.425781 299.484375 C 236.800781 301.332031 231.683594 302.542969 225.785156 302.542969 C 219.957031 302.542969 214.90625 301.410156 210.351562 299.625 C 205.941406 297.847656 202.027344 295.429688 198.335938 292.648438 C 195.566406 290.585938 192.507812 288.664062 189.097656 287.3125 C 185.820312 285.960938 182.203125 285.179688 178 285.179688 C 173.808594 285.179688 170.25 285.960938 167.054688 287.242188 C 163.710938 288.59375 160.652344 290.519531 157.664062 292.71875 C 154.183594 295.28125 150.269531 297.699219 145.859375 299.542969 C 141.234375 301.390625 136.117188 302.601562 130.21875 302.601562 C 124.390625 302.601562 119.339844 301.46875 114.78125 299.683594 C 110.375 297.90625 106.457031 295.492188 102.769531 292.707031 C 100 290.648438 96.941406 288.722656 93.527344 287.371094 C 90.253906 286.019531 86.636719 285.242188 82.433594 285.242188 C 78.242188 285.242188 74.683594 286.019531 71.484375 287.300781 C 68.144531 288.652344 65.085938 290.578125 62.097656 292.777344 C 58.617188 295.34375 54.699219 297.757812 50.292969 299.605469 C 45.667969 301.449219 40.546875 302.660156 34.648438 302.660156 C 28.820312 302.660156 23.773438 301.527344 19.214844 299.742188 C 14.804688 297.964844 10.890625 295.550781 7.203125 292.765625 C 4.429688 290.707031 1.375 288.78125 -2.039062 287.429688 C -5.3125 286.078125 -8.933594 285.300781 -13.132812 285.300781 C -16.476562 285.300781 -19.179688 282.597656 -19.179688 279.253906 C -19.179688 275.910156 -16.476562 273.207031 -13.132812 273.207031 C -7.304688 273.207031 -2.109375 274.417969 2.507812 276.261719 C 6.984375 278.039062 10.832031 280.535156 14.3125 283.089844 C 17.300781 285.300781 20.359375 287.214844 23.703125 288.566406 C 26.898438 289.847656 30.457031 290.625 34.648438 290.625 C 38.839844 290.625 42.472656 289.769531 45.746094 288.417969 C 49.15625 287.066406 52.214844 285.074219 54.988281 283.082031 C 58.683594 280.378906 62.589844 277.890625 67 276.105469 C 71.546875 274.261719 76.59375 273.1875 82.433594 273.1875 C 88.261719 273.1875 93.460938 274.398438 98.074219 276.242188 C 102.554688 278.019531 106.398438 280.515625 109.882812 283.070312 C 112.871094 285.28125 115.925781 287.195312 119.269531 288.546875 C 122.464844 289.828125 126.027344 290.605469 130.21875 290.605469 C 134.410156 290.605469 138.039062 289.75 141.3125 288.398438 C 144.726562 287.046875 147.78125 285.054688 150.554688 283.058594 C 154.253906 280.359375 158.15625 277.871094 162.566406 276.085938 C 167.113281 274.242188 172.164062 273.164062 178 273.164062 C 183.828125 273.164062 189.027344 274.378906 193.644531 276.222656 C 198.121094 278 201.96875 280.496094 205.449219 283.050781 C 208.4375 285.261719 211.496094 287.175781 214.835938 288.527344 C 218.035156 289.808594 221.59375 290.585938 225.785156 290.585938 C 229.976562 290.585938 233.605469 289.730469 236.878906 288.378906 C 240.292969 287.027344 243.351562 285.035156 246.121094 283.039062 C 249.820312 280.335938 253.726562 277.851562 258.132812 276.066406 C 262.679688 274.222656 267.730469 273.144531 273.570312 273.144531 C 279.40625 273.144531 284.59375 274.359375 289.210938 276.203125 C 293.6875 277.980469 297.535156 280.476562 301.015625 283.03125 C 304.003906 285.242188 307.0625 287.15625 310.40625 288.507812 C 313.601562 289.789062 317.160156 290.566406 321.351562 290.566406 C 325.542969 290.566406 329.171875 289.710938 332.449219 288.359375 C 335.859375 287.007812 338.917969 285.015625 341.6875 283.019531 C 345.386719 280.316406 349.292969 277.832031 353.703125 276.046875 C 358.328125 273.914062 363.375 272.851562 369.136719 272.851562 C 372.480469 272.96875 375.183594 275.671875 375.183594 279.015625 Z M 375.183594 345.722656 C 375.183594 349.066406 372.480469 351.769531 369.136719 351.769531 C 364.945312 351.769531 361.382812 352.550781 358.1875 353.832031 C 354.847656 355.183594 351.789062 357.105469 348.800781 359.304688 C 345.320312 361.871094 341.402344 364.289062 336.996094 366.132812 C 332.367188 367.976562 327.25 369.191406 321.351562 369.191406 C 315.523438 369.191406 310.472656 368.058594 305.917969 366.269531 C 301.507812 364.496094 297.59375 362.078125 293.90625 359.296875 C 291.132812 357.234375 288.078125 355.3125 284.664062 353.960938 C 281.390625 352.609375 277.769531 351.828125 273.570312 351.828125 C 269.378906 351.828125 265.816406 352.609375 262.621094 353.890625 C 259.277344 355.242188 256.222656 357.164062 253.234375 359.367188 C 249.75 361.929688 245.835938 364.347656 241.425781 366.191406 C 236.800781 368.035156 231.683594 369.25 225.785156 369.25 C 219.957031 369.25 214.90625 368.117188 210.351562 366.332031 C 205.941406 364.554688 202.027344 362.136719 198.335938 359.355469 C 195.566406 357.292969 192.507812 355.371094 189.097656 354.019531 C 185.820312 352.667969 182.203125 351.886719 178 351.886719 C 173.808594 351.886719 170.25 352.667969 167.054688 353.949219 C 163.710938 355.300781 160.652344 357.226562 157.664062 359.425781 C 154.183594 361.988281 150.269531 364.40625 145.859375 366.25 C 141.234375 368.097656 136.117188 369.308594 130.21875 369.308594 C 124.390625 369.308594 119.339844 368.175781 114.78125 366.390625 C 110.375 364.613281 106.457031 362.195312 102.769531 359.414062 C 100 357.351562 96.941406 355.429688 93.527344 354.078125 C 90.253906 352.726562 86.636719 351.949219 82.433594 351.949219 C 78.242188 351.949219 74.683594 352.726562 71.484375 354.007812 C 68.144531 355.359375 65.085938 357.285156 62.097656 359.484375 C 58.617188 362.050781 54.699219 364.464844 50.292969 366.3125 C 45.667969 368.15625 40.546875 369.367188 34.648438 369.367188 C 28.820312 369.367188 23.773438 368.234375 19.214844 366.449219 C 14.804688 364.671875 10.890625 362.257812 7.203125 359.472656 C 4.429688 357.414062 1.375 355.488281 -2.039062 354.136719 C -5.3125 352.785156 -8.933594 352.007812 -13.132812 352.007812 C -16.476562 352.007812 -19.179688 349.304688 -19.179688 345.960938 C -19.179688 342.613281 -16.476562 339.910156 -13.132812 339.910156 C -7.304688 339.910156 -2.109375 341.125 2.507812 342.96875 C 6.984375 344.746094 10.832031 347.242188 14.3125 349.796875 C 17.300781 352.007812 20.359375 353.921875 23.703125 355.273438 C 26.898438 356.554688 30.457031 357.332031 34.648438 357.332031 C 38.839844 357.332031 42.472656 356.476562 45.746094 355.203125 C 49.15625 353.851562 52.214844 351.859375 54.988281 349.867188 C 58.683594 347.164062 62.589844 344.675781 67 342.890625 C 71.546875 341.046875 76.59375 339.972656 82.433594 339.972656 C 88.261719 339.972656 93.460938 341.183594 98.074219 343.03125 C 102.554688 344.804688 106.398438 347.300781 109.882812 349.855469 C 112.871094 352.066406 115.925781 353.980469 119.269531 355.332031 C 122.464844 356.613281 126.027344 357.394531 130.21875 357.394531 C 134.410156 357.394531 138.039062 356.535156 141.3125 355.261719 C 144.726562 353.910156 147.78125 351.917969 150.554688 349.925781 C 154.253906 347.222656 158.15625 344.734375 162.566406 342.949219 C 167.113281 341.105469 172.164062 340.03125 178 340.03125 C 183.828125 340.03125 189.027344 341.242188 193.644531 343.089844 C 198.121094 344.863281 201.96875 347.359375 205.449219 349.914062 C 208.4375 352.125 211.496094 354.039062 214.835938 355.390625 C 218.035156 356.671875 221.59375 357.453125 225.785156 357.453125 C 229.976562 357.453125 233.605469 356.59375 236.878906 355.320312 C 240.292969 353.96875 243.351562 351.976562 246.121094 349.984375 C 249.820312 347.28125 253.726562 344.796875 258.132812 343.007812 C 262.679688 341.164062 267.730469 340.089844 273.570312 340.089844 C 279.40625 340.089844 284.59375 341.304688 289.210938 343.148438 C 293.6875 344.921875 297.535156 347.417969 301.015625 349.972656 C 304.003906 352.183594 307.0625 354.097656 310.40625 355.449219 C 313.601562 356.730469 317.160156 357.511719 321.351562 357.511719 C 325.542969 357.511719 329.171875 356.652344 332.449219 355.378906 C 335.859375 354.027344 338.917969 352.035156 341.6875 350.042969 C 345.386719 347.339844 349.292969 344.855469 353.703125 343.070312 C 358.328125 340.652344 363.375 339.585938 369.136719 339.585938 C 372.480469 339.683594 375.183594 342.386719 375.183594 345.722656 Z M 375.183594 345.722656 " fill-opacity="1" fill-rule="nonzero"/></g></svg>