<svg xmlns="http://www.w3.org/2000/svg" xmlns:xlink="http://www.w3.org/1999/xlink" width="500" zoomAndPan="magnify" viewBox="0 0 375 374.999991" height="500" preserveAspectRatio="xMidYMid meet" version="1.0"><defs><clipPath id="fb067e43ff"><path d="M 6.867188 31.8125 L 362.367188 31.8125 L 362.367188 375 L 6.867188 375 Z M 6.867188 31.8125 " clip-rule="nonzero"/></clipPath></defs><rect x="-37.5" width="450" fill="#ffffff" y="-37.499999" height="449.999989" fill-opacity="1"/><rect x="-37.5" width="450" fill="#ffffff" y="-37.499999" height="449.999989" fill-opacity="1"/><g clip-path="url(#fb067e43ff)"><path fill="#000000" d="M 356.644531 31.8125 L 12.589844 31.8125 C 9.425781 31.8125 6.875 34.367188 6.875 37.53125 L 6.875 270.546875 C 6.875 273.703125 9.425781 276.265625 12.589844 276.265625 L 122.550781 276.265625 L 122.550781 328.394531 L 57.414062 328.394531 C 54.261719 328.394531 51.703125 330.949219 51.703125 334.113281 L 51.703125 369.628906 C 51.703125 372.789062 54.253906 375.347656 57.414062 375.347656 L 292.636719 375.347656 C 292.648438 375.347656 292.648438 375.347656 292.65625 375.347656 L 320.882812 375.347656 C 326.863281 375.347656 332.441406 372.992188 336.335938 369.023438 C 340.226562 365.058594 342.714844 359.542969 342.714844 353.558594 L 342.714844 276.335938 L 356.632812 276.335938 C 359.789062 276.335938 362.347656 273.785156 362.347656 270.617188 L 362.347656 37.53125 C 362.355469 34.367188 359.804688 31.8125 356.644531 31.8125 Z M 133.96875 276.265625 L 155.679688 276.265625 L 155.679688 285.277344 C 155.679688 292.542969 159.039062 299.132812 164.488281 303.839844 C 169.660156 308.347656 176.785156 311.167969 184.582031 311.167969 C 192.375 311.167969 199.503906 308.339844 204.675781 303.839844 C 210.121094 299.132812 213.480469 292.535156 213.480469 285.277344 L 213.480469 276.265625 L 235.253906 276.265625 L 235.253906 328.394531 L 133.96875 328.394531 Z M 167.109375 276.265625 L 202.0625 276.265625 L 202.0625 285.277344 C 202.0625 289.046875 200.175781 292.605469 197.21875 295.167969 C 194.0625 297.921875 189.558594 299.675781 184.582031 299.675781 C 179.605469 299.675781 175.167969 297.921875 171.941406 295.167969 C 168.984375 292.613281 167.101562 289.109375 167.101562 285.277344 L 167.101562 276.265625 Z M 270.8125 276.265625 L 270.8125 328.394531 L 246.683594 328.394531 L 246.683594 276.265625 Z M 63.128906 339.824219 L 270.8125 339.824219 L 270.8125 353.546875 C 270.8125 357.300781 271.753906 360.824219 273.425781 363.910156 L 63.128906 363.910156 Z M 331.304688 353.488281 C 331.304688 356.316406 330.097656 358.867188 328.214844 360.816406 C 326.328125 362.761719 323.777344 363.910156 320.890625 363.910156 L 292.664062 363.910156 C 289.777344 363.910156 287.15625 362.761719 285.34375 360.816406 L 285.074219 360.609375 C 283.324219 358.726562 282.25 356.234375 282.25 353.476562 L 282.25 209.265625 L 331.316406 209.265625 L 331.316406 353.488281 Z M 350.929688 264.890625 L 342.726562 264.890625 L 342.726562 203.609375 C 342.726562 200.449219 340.175781 197.886719 337.011719 197.886719 L 276.515625 197.886719 C 273.363281 197.886719 270.800781 200.441406 270.800781 203.609375 L 270.800781 264.890625 L 241.796875 264.890625 C 241.519531 264.855469 241.246094 264.820312 240.960938 264.820312 L 128.261719 264.820312 C 127.980469 264.820312 127.703125 264.84375 127.429688 264.890625 L 18.304688 264.890625 L 18.304688 43.25 L 350.9375 43.25 L 350.9375 264.890625 Z M 292.257812 225.675781 L 292.257812 225.203125 C 292.257812 222.046875 294.804688 219.484375 297.96875 219.484375 C 301.132812 219.484375 303.683594 222.035156 303.683594 225.203125 L 303.683594 225.675781 C 303.683594 228.832031 301.132812 231.394531 297.96875 231.394531 C 294.804688 231.394531 292.257812 228.839844 292.257812 225.675781 Z M 322.230469 251.238281 C 322.230469 254.394531 319.679688 256.957031 316.519531 256.957031 L 295.082031 256.957031 C 291.925781 256.957031 289.367188 254.402344 289.367188 251.238281 C 289.367188 248.070312 291.917969 245.519531 295.082031 245.519531 L 316.527344 245.519531 C 319.679688 245.519531 322.230469 248.078125 322.230469 251.238281 Z M 322.230469 305.855469 C 322.230469 309.015625 319.679688 311.574219 316.519531 311.574219 L 295.082031 311.574219 C 291.925781 311.574219 289.367188 309.023438 289.367188 305.855469 C 289.367188 302.691406 291.917969 300.136719 295.082031 300.136719 L 316.527344 300.136719 C 319.679688 300.136719 322.230469 302.699219 322.230469 305.855469 Z M 322.230469 278.550781 C 322.230469 281.707031 319.679688 284.269531 316.519531 284.269531 L 295.082031 284.269531 C 291.925781 284.269531 289.367188 281.71875 289.367188 278.550781 C 289.367188 275.386719 291.917969 272.832031 295.082031 272.832031 L 316.527344 272.832031 C 319.679688 272.832031 322.230469 275.386719 322.230469 278.550781 Z M 322.230469 278.550781 " fill-opacity="1" fill-rule="nonzero"/></g></svg>