<svg xmlns="http://www.w3.org/2000/svg" xmlns:xlink="http://www.w3.org/1999/xlink" width="500" zoomAndPan="magnify" viewBox="0 0 375 374.999991" height="500" preserveAspectRatio="xMidYMid meet" version="1.0"><defs><clipPath id="eeeebabb75"><path d="M 37.5 7.136719 L 339.75 7.136719 L 339.75 374.636719 L 37.5 374.636719 Z M 37.5 7.136719 " clip-rule="nonzero"/></clipPath></defs><rect x="-37.5" width="450" fill="#ffffff" y="-37.499999" height="449.999989" fill-opacity="1"/><rect x="-37.5" width="450" fill="#ffffff" y="-37.499999" height="449.999989" fill-opacity="1"/><g clip-path="url(#eeeebabb75)"><path fill="#000000" d="M 215.214844 40.589844 L 215.214844 40.085938 C 215.214844 36.703125 217.957031 33.964844 221.339844 33.964844 C 224.722656 33.964844 227.460938 36.703125 227.460938 40.085938 L 227.460938 40.589844 C 227.460938 43.972656 224.722656 46.707031 221.339844 46.707031 C 217.945312 46.707031 215.214844 43.972656 215.214844 40.589844 Z M 247.609375 46.707031 C 250.992188 46.707031 253.730469 43.972656 253.730469 40.589844 L 253.730469 40.085938 C 253.730469 36.703125 250.992188 33.964844 247.609375 33.964844 C 244.222656 33.964844 241.484375 36.703125 241.484375 40.085938 L 241.484375 40.589844 C 241.492188 43.972656 244.222656 46.707031 247.609375 46.707031 Z M 195.125 46.707031 C 198.507812 46.707031 201.25 43.972656 201.25 40.589844 L 201.25 40.085938 C 201.25 36.703125 198.507812 33.964844 195.125 33.964844 C 191.742188 33.964844 189 36.703125 189 40.085938 L 189 40.589844 C 189 43.972656 191.742188 46.707031 195.125 46.707031 Z M 221.328125 72.398438 C 224.714844 72.398438 227.453125 69.660156 227.453125 66.277344 L 227.453125 65.773438 C 227.453125 62.390625 224.714844 59.652344 221.328125 59.652344 C 217.945312 59.652344 215.207031 62.390625 215.207031 65.773438 L 215.207031 66.277344 C 215.214844 69.660156 217.945312 72.398438 221.328125 72.398438 Z M 247.609375 72.398438 C 250.992188 72.398438 253.730469 69.660156 253.730469 66.277344 L 253.730469 65.773438 C 253.730469 62.390625 250.992188 59.652344 247.609375 59.652344 C 244.222656 59.652344 241.484375 62.390625 241.484375 65.773438 L 241.484375 66.277344 C 241.492188 69.660156 244.222656 72.398438 247.609375 72.398438 Z M 195.125 72.398438 C 198.507812 72.398438 201.25 69.660156 201.25 66.277344 L 201.25 65.773438 C 201.25 62.390625 198.507812 59.652344 195.125 59.652344 C 191.742188 59.652344 189 62.390625 189 65.773438 L 189 66.277344 C 189 69.660156 191.742188 72.398438 195.125 72.398438 Z M 276.773438 66.996094 C 273.316406 63.539062 271.15625 58.71875 271.15625 53.398438 C 271.15625 48.078125 273.316406 43.328125 276.773438 39.800781 L 277.203125 39.441406 C 280.589844 36.207031 285.269531 34.1875 290.378906 34.1875 C 295.703125 34.1875 300.457031 36.34375 303.988281 39.800781 L 304.347656 40.230469 C 307.582031 43.6875 309.605469 48.289062 309.605469 53.398438 C 309.605469 58.71875 307.445312 63.46875 303.988281 66.996094 C 300.53125 70.449219 295.703125 72.609375 290.378906 72.609375 C 285.121094 72.609375 280.304688 70.449219 276.773438 66.996094 Z M 283.394531 53.398438 C 283.394531 55.335938 284.183594 57.0625 285.40625 58.359375 C 286.628906 59.582031 288.429688 60.371094 290.371094 60.371094 C 292.3125 60.371094 294.039062 59.582031 295.335938 58.359375 C 296.558594 57.136719 297.351562 55.335938 297.351562 53.398438 C 297.351562 51.597656 296.707031 49.941406 295.546875 48.722656 L 295.261719 48.4375 C 294.039062 47.214844 292.238281 46.425781 290.296875 46.425781 C 288.496094 46.425781 286.839844 47.066406 285.617188 48.226562 L 285.398438 48.4375 C 284.183594 49.65625 283.394531 51.457031 283.394531 53.398438 Z M 73.582031 71.671875 L 134.136719 71.671875 C 137.523438 71.671875 140.261719 68.933594 140.261719 65.550781 C 140.261719 62.171875 137.523438 59.433594 134.136719 59.433594 L 73.582031 59.433594 C 70.199219 59.433594 67.460938 62.171875 67.460938 65.550781 C 67.46875 68.941406 70.199219 71.671875 73.582031 71.671875 Z M 73.582031 47.140625 L 134.136719 47.140625 C 137.523438 47.140625 140.261719 44.402344 140.261719 41.023438 C 140.261719 37.640625 137.523438 34.902344 134.136719 34.902344 L 73.582031 34.902344 C 70.199219 34.902344 67.460938 37.640625 67.460938 41.023438 C 67.46875 44.402344 70.199219 47.140625 73.582031 47.140625 Z M 339.773438 334.78125 C 339.773438 335.085938 339.746094 335.378906 339.699219 335.664062 L 339.699219 368.519531 C 339.699219 371.902344 336.960938 374.636719 333.578125 374.636719 L 43.5625 374.636719 C 40.253906 374.636719 37.511719 371.902344 37.511719 368.519531 L 37.511719 26.347656 C 37.511719 21.09375 39.675781 16.28125 43.132812 12.824219 C 46.589844 9.371094 51.414062 7.210938 56.664062 7.210938 L 163.265625 7.210938 C 163.5625 7.164062 163.855469 7.136719 164.160156 7.136719 C 164.460938 7.136719 164.757812 7.164062 165.050781 7.210938 L 320.546875 7.210938 C 325.808594 7.210938 330.625 9.371094 334.082031 12.824219 C 337.539062 16.28125 339.699219 21.101562 339.699219 26.347656 L 339.699219 96.109375 C 339.746094 96.402344 339.773438 96.699219 339.773438 96.992188 C 339.773438 97.285156 339.746094 97.589844 339.699219 97.875 L 339.699219 333.882812 C 339.746094 334.1875 339.773438 334.480469 339.773438 334.78125 Z M 49.75 328.664062 L 327.527344 328.664062 L 327.527344 103.109375 L 49.75 103.109375 Z M 170.28125 19.441406 L 170.28125 90.882812 L 327.535156 90.882812 L 327.535156 26.347656 C 327.535156 24.410156 326.746094 22.683594 325.523438 21.460938 C 324.300781 20.238281 322.496094 19.449219 320.628906 19.449219 L 170.28125 19.449219 Z M 49.75 26.347656 L 49.75 90.882812 L 158.042969 90.882812 L 158.042969 19.441406 L 56.664062 19.441406 C 54.726562 19.441406 52.996094 20.230469 51.773438 21.453125 C 50.542969 22.675781 49.75 24.402344 49.75 26.347656 Z M 327.535156 362.410156 L 327.535156 340.902344 L 49.75 340.902344 L 49.75 362.410156 Z M 300.097656 204.558594 L 300.097656 228.160156 C 300.097656 231.542969 297.359375 234.28125 293.976562 234.28125 L 274.539062 234.28125 C 270.558594 253.472656 260.257812 270.40625 245.953125 282.773438 C 230.542969 296.085938 210.527344 304.144531 188.644531 304.144531 C 164.378906 304.144531 142.488281 294.359375 126.582031 278.453125 C 110.664062 262.550781 100.871094 240.683594 100.871094 216.4375 C 100.871094 192.191406 110.664062 170.316406 126.582031 154.421875 C 142.496094 138.519531 164.378906 128.734375 188.644531 128.734375 C 210.535156 128.734375 230.617188 136.792969 245.953125 150.105469 C 260.269531 162.425781 270.511719 179.285156 274.511719 198.449219 L 293.976562 198.449219 C 297.367188 198.441406 300.097656 201.179688 300.097656 204.558594 Z M 113.917969 204.816406 C 116.734375 205 119.207031 205.945312 121.394531 207.296875 C 123.554688 208.667969 125.359375 210.320312 126.9375 212.121094 C 127.875 213.195312 128.878906 214.132812 129.816406 214.710938 C 130.46875 215.070312 131.113281 215.289062 131.902344 215.289062 C 132.695312 215.289062 133.347656 215.003906 133.992188 214.648438 C 134.929688 214.070312 135.929688 213.140625 136.796875 212.054688 C 138.449219 210.183594 140.253906 208.453125 142.414062 207.167969 C 144.859375 205.660156 147.597656 204.726562 150.835938 204.726562 C 154.070312 204.726562 156.886719 205.734375 159.332031 207.242188 C 161.492188 208.609375 163.292969 210.265625 164.875 212.066406 C 165.8125 213.140625 166.816406 214.078125 167.753906 214.65625 C 168.40625 215.015625 169.050781 215.234375 169.839844 215.234375 C 170.632812 215.234375 171.285156 214.949219 171.929688 214.59375 C 172.867188 214.011719 173.867188 213.085938 174.730469 212 C 176.386719 210.128906 178.1875 208.398438 180.351562 207.113281 C 182.796875 205.605469 185.609375 204.667969 188.773438 204.667969 C 192.007812 204.667969 194.820312 205.679688 197.269531 207.1875 C 199.429688 208.554688 201.230469 210.210938 202.8125 212.011719 C 203.75 213.085938 204.753906 214.023438 205.691406 214.601562 C 206.34375 214.960938 206.988281 215.179688 207.777344 215.179688 C 208.566406 215.179688 209.21875 214.894531 209.863281 214.535156 C 210.800781 213.957031 211.804688 213.03125 212.667969 211.945312 C 214.324219 210.070312 216.125 208.34375 218.285156 207.058594 C 220.730469 205.550781 223.546875 204.613281 226.707031 204.613281 C 229.945312 204.613281 232.757812 205.625 235.203125 207.132812 C 237.238281 208.417969 238.945312 209.972656 240.464844 211.644531 L 240.464844 204.613281 C 240.464844 201.234375 243.203125 198.496094 246.585938 198.496094 L 261.996094 198.496094 C 258.253906 183.023438 249.6875 169.425781 237.945312 159.285156 C 224.695312 147.84375 207.492188 140.9375 188.550781 140.9375 C 167.671875 140.9375 148.804688 149.351562 135.132812 163.023438 C 124.042969 174.074219 116.402344 188.582031 113.917969 204.816406 Z M 262.015625 234.273438 L 246.605469 234.273438 C 243.222656 234.273438 240.480469 231.535156 240.480469 228.152344 L 240.480469 226.902344 C 239.34375 226.5 238.265625 225.976562 237.246094 225.339844 C 235.160156 224.046875 233.355469 222.320312 231.628906 220.453125 C 230.691406 219.441406 229.753906 218.515625 228.824219 217.863281 C 228.179688 217.429688 227.453125 217.21875 226.734375 217.21875 C 225.945312 217.21875 225.292969 217.429688 224.648438 217.796875 C 223.710938 218.378906 222.773438 219.304688 221.769531 220.390625 C 220.191406 222.117188 218.386719 223.84375 216.226562 225.210938 C 213.707031 226.71875 210.902344 227.730469 207.730469 227.730469 C 204.496094 227.730469 201.753906 226.792969 199.308594 225.285156 C 197.222656 223.992188 195.417969 222.261719 193.691406 220.398438 C 192.753906 219.386719 191.816406 218.460938 190.886719 217.808594 C 190.242188 217.375 189.515625 217.164062 188.800781 217.164062 C 188.007812 217.164062 187.355469 217.375 186.710938 217.742188 C 185.773438 218.320312 184.835938 219.25 183.835938 220.335938 C 182.253906 222.0625 180.449219 223.789062 178.289062 225.15625 C 175.769531 226.664062 172.964844 227.675781 169.792969 227.675781 C 166.558594 227.675781 163.816406 226.738281 161.371094 225.230469 C 159.285156 223.9375 157.484375 222.207031 155.753906 220.34375 C 154.816406 219.332031 153.878906 218.40625 152.949219 217.753906 C 152.304688 217.320312 151.582031 217.109375 150.863281 217.109375 C 150.074219 217.109375 149.417969 217.320312 148.777344 217.6875 C 147.839844 218.265625 146.898438 219.195312 145.898438 220.277344 C 144.316406 222.007812 142.515625 223.734375 140.355469 225.101562 C 137.835938 226.609375 135.03125 227.621094 131.859375 227.621094 C 128.621094 227.621094 125.882812 226.683594 123.4375 225.175781 C 121.347656 223.878906 119.546875 222.152344 117.816406 220.289062 C 116.878906 219.277344 115.941406 218.351562 115.015625 217.699219 C 114.417969 217.300781 113.753906 217.089844 113.09375 217.0625 C 113.265625 237.660156 121.644531 256.265625 135.175781 269.789062 C 148.859375 283.460938 167.726562 291.878906 188.597656 291.878906 C 207.464844 291.878906 224.742188 284.96875 237.988281 273.53125 C 249.628906 263.414062 258.199219 249.742188 262.015625 234.273438 Z M 287.859375 210.667969 L 270.289062 210.667969 L 269.425781 210.742188 L 252.71875 210.742188 L 252.71875 221.1875 C 252.746094 221.472656 252.738281 221.757812 252.71875 222.035156 L 287.851562 222.035156 L 287.851562 210.667969 Z M 287.859375 210.667969 " fill-opacity="1" fill-rule="nonzero"/></g></svg>