<svg xmlns="http://www.w3.org/2000/svg" xmlns:xlink="http://www.w3.org/1999/xlink" width="500" zoomAndPan="magnify" viewBox="0 0 375 374.999991" height="500" preserveAspectRatio="xMidYMid meet" version="1.0"><defs><clipPath id="5e9263ba43"><path d="M 2 80.074219 L 373 80.074219 L 373 374.824219 L 2 374.824219 Z M 2 80.074219 " clip-rule="nonzero"/></clipPath></defs><rect x="-37.5" width="450" fill="#ffffff" y="-37.499999" height="449.999989" fill-opacity="1"/><rect x="-37.5" width="450" fill="#ffffff" y="-37.499999" height="449.999989" fill-opacity="1"/><g clip-path="url(#5e9263ba43)"><path fill="#000000" d="M 187.460938 314.96875 C 179.394531 314.96875 172.101562 318.191406 166.707031 323.378906 L 166.351562 323.730469 C 160.949219 329.132812 157.585938 336.554688 157.585938 344.828125 C 157.585938 353.027344 160.949219 360.535156 166.351562 365.925781 C 171.757812 371.328125 179.257812 374.691406 187.460938 374.691406 C 195.527344 374.691406 202.820312 371.464844 208.214844 366.277344 L 208.566406 365.925781 C 213.972656 360.523438 217.335938 353.101562 217.335938 344.828125 C 217.335938 336.628906 213.972656 329.125 208.566406 323.730469 C 203.164062 318.339844 195.664062 314.96875 187.460938 314.96875 Z M 200.152344 357.523438 L 199.875 357.800781 C 196.648438 360.886719 192.300781 362.777344 187.460938 362.777344 C 182.484375 362.777344 177.996094 360.746094 174.769531 357.523438 C 171.542969 354.296875 169.515625 349.8125 169.515625 344.839844 C 169.515625 339.863281 171.542969 335.378906 174.769531 332.152344 L 175.046875 331.875 C 178.273438 328.789062 182.621094 326.902344 187.460938 326.902344 C 192.4375 326.902344 196.925781 328.929688 200.152344 332.152344 C 203.453125 335.453125 205.40625 339.9375 205.40625 344.839844 C 205.417969 349.804688 203.378906 354.296875 200.152344 357.523438 Z M 313.34375 211.578125 C 296.9375 195.175781 277.296875 181.929688 255.492188 172.886719 C 234.523438 164.195312 211.515625 159.359375 187.394531 159.359375 C 163.339844 159.359375 140.34375 164.195312 119.300781 172.886719 C 97.488281 181.929688 77.855469 195.175781 61.445312 211.578125 L 59.0625 214.03125 C 56.820312 216.347656 56.886719 219.988281 59.136719 222.304688 L 84.667969 248.378906 C 86.984375 250.695312 90.765625 250.757812 93.085938 248.453125 L 95.679688 245.792969 C 107.675781 233.804688 121.976562 224.203125 137.828125 217.617188 C 153.117188 211.308594 169.875 207.804688 187.339844 207.804688 C 204.945312 207.804688 221.703125 211.308594 236.988281 217.617188 C 252.839844 224.140625 267.144531 233.8125 279.140625 245.792969 C 280.046875 246.5625 280.828125 247.480469 281.660156 248.3125 C 283.980469 250.628906 287.695312 250.695312 290.078125 248.453125 L 315.671875 222.304688 C 317.988281 219.988281 317.988281 216.273438 315.671875 213.96875 C 315.449219 213.753906 313.34375 211.578125 313.34375 211.578125 Z M 286.128906 235.769531 C 273.4375 223.5 258.355469 213.550781 241.734375 206.675781 C 224.976562 199.808594 206.667969 195.945312 187.527344 195.945312 C 168.308594 195.945312 150.011719 199.734375 133.316406 206.675781 C 116.621094 213.539062 101.613281 223.5 88.921875 235.769531 L 71.882812 218.246094 C 86.816406 203.738281 104.496094 192.035156 123.988281 183.976562 C 143.558594 175.914062 165.019531 171.429688 187.601562 171.429688 C 210.179688 171.429688 231.640625 175.851562 251.210938 183.976562 C 270.703125 192.035156 288.382812 203.738281 303.316406 218.246094 Z M 371.058594 157.253906 C 370.847656 157.117188 369.371094 155.640625 369.371094 155.566406 C 345.667969 131.878906 317.332031 112.746094 285.777344 99.699219 C 255.484375 87.164062 222.242188 80.222656 187.386719 80.222656 C 152.605469 80.222656 119.363281 87.164062 88.996094 99.707031 C 57.441406 112.746094 29.105469 131.886719 5.402344 155.578125 L 3.714844 157.328125 C 1.46875 159.644531 1.46875 163.359375 3.714844 165.667969 L 29.242188 191.738281 C 31.558594 194.054688 35.34375 194.121094 37.660156 191.8125 L 39.691406 189.785156 C 58.972656 170.511719 81.980469 155.023438 107.507812 144.429688 C 132.121094 134.265625 159.121094 128.585938 187.386719 128.660156 C 215.714844 128.660156 242.71875 134.265625 267.339844 144.429688 C 292.867188 154.949219 315.867188 170.503906 335.15625 189.785156 C 335.863281 190.414062 336.492188 191.117188 337.121094 191.75 C 339.441406 194.066406 343.222656 194.128906 345.539062 191.824219 L 371.132812 165.675781 C 373.441406 163.359375 373.378906 159.570312 371.058594 157.253906 Z M 341.535156 179.128906 C 321.613281 159.859375 298.125 144.21875 272.039062 133.425781 C 245.953125 122.628906 217.476562 116.671875 187.535156 116.671875 C 157.59375 116.671875 129.042969 122.628906 103.03125 133.425781 C 76.9375 144.21875 53.371094 159.847656 33.523438 179.128906 L 16.476562 161.601562 C 38.640625 140.078125 64.800781 122.695312 93.6875 110.714844 C 122.570312 98.734375 154.273438 92.136719 187.589844 92.136719 C 220.90625 92.136719 252.601562 98.726562 281.496094 110.714844 C 310.386719 122.703125 336.546875 140.085938 358.703125 161.601562 Z M 255.417969 269.550781 C 246.511719 260.71875 235.921875 253.566406 224.140625 248.664062 C 212.777344 243.96875 200.363281 241.375 187.394531 241.375 C 174.417969 241.375 162.003906 243.96875 150.648438 248.664062 C 138.867188 253.574219 128.28125 260.71875 119.4375 269.550781 C 118.390625 270.597656 117.410156 271.652344 116.351562 272.773438 C 114.246094 275.15625 114.320312 278.730469 116.492188 280.972656 L 142.085938 307.046875 C 144.402344 309.363281 148.183594 309.425781 150.5 307.121094 L 152.253906 305.230469 L 153.652344 303.757812 C 158.074219 299.335938 163.332031 295.769531 169.152344 293.378906 C 174.761719 291.0625 180.933594 289.738281 187.527344 289.804688 C 194.050781 289.804688 200.214844 291.0625 205.832031 293.378906 C 211.65625 295.761719 216.910156 299.335938 221.332031 303.757812 L 222.734375 305.230469 L 224.066406 306.703125 C 226.171875 309.15625 229.890625 309.511719 232.410156 307.40625 L 232.828125 307.054688 L 258.355469 280.980469 C 260.535156 278.664062 260.601562 275.089844 258.496094 272.78125 Z M 228.628906 294.296875 C 223.371094 289.320312 217.125 285.253906 210.253906 282.382812 C 203.238281 279.433594 195.527344 277.824219 187.460938 277.824219 C 179.46875 277.824219 171.75 279.433594 164.667969 282.382812 C 157.796875 285.1875 151.550781 289.320312 146.292969 294.296875 L 129.117188 276.777344 C 136.617188 269.558594 145.460938 263.738281 155.203125 259.671875 C 165.15625 255.539062 176.03125 253.296875 187.460938 253.296875 C 198.964844 253.296875 209.828125 255.613281 219.71875 259.671875 C 229.472656 263.738281 238.304688 269.558594 245.804688 276.777344 Z M 228.628906 294.296875 " fill-opacity="1" fill-rule="nonzero"/></g></svg>