<svg width="1707" height="857" viewBox="0 0 1707 857" fill="none" xmlns="http://www.w3.org/2000/svg">
<path d="M621.996 4.13621C609.463 7.46954 603.863 8.13621 583.33 8.93621C556.663 10.0029 553.996 10.8029 548.13 20.4029C543.463 28.0029 539.196 28.8029 524.263 25.2029C509.33 21.6029 500.796 22.1362 491.063 26.9362C484.263 30.4029 475.596 39.0695 471.73 46.2695C469.73 50.1362 461.33 55.2029 453.063 57.7362C449.463 58.8029 450.13 63.6029 454.396 67.8695C459.196 72.6695 469.196 74.8029 481.196 73.7362C491.73 72.6695 499.063 74.6695 501.996 79.0695C503.063 80.6695 507.33 93.0695 511.463 106.67C519.863 134.136 521.196 137.336 527.063 143.47C535.996 152.936 544.93 152.136 560.263 140.403C575.996 128.403 581.863 125.87 612.93 117.87C632.13 112.803 646.53 107.07 651.596 102.27C653.596 100.403 654.93 97.2029 655.463 93.2029L656.263 86.9362L664.13 86.1362C678.13 84.9362 681.863 80.0029 678.663 66.5362C675.463 52.2695 675.463 50.9362 679.063 47.3362C680.796 45.6029 684.93 43.3362 688.13 42.4029C691.33 41.4695 694.396 40.0029 694.93 39.2029C697.063 36.2695 695.996 26.9362 693.196 23.3362C689.73 18.9362 685.196 18.8029 675.596 23.2029C665.596 27.8695 662.93 26.6695 657.196 15.2029C651.863 4.53621 646.796 -0.13046 640.93 0.00287304C638.53 0.136206 630.13 2.00287 621.996 4.13621ZM647.996 8.80287C649.463 10.6695 651.863 14.9362 653.33 18.1362C658.663 30.4029 666.396 33.4695 677.33 27.8695C684.13 24.4029 688.796 24.4029 690.663 28.0029C693.196 32.6695 691.33 36.5362 685.596 38.2695C678.396 40.4029 673.863 44.4029 671.996 49.8695C670.663 53.8695 670.93 56.1362 673.463 64.5362C676.13 73.8695 676.263 74.6695 674.13 77.8695C672.263 80.8029 671.063 81.2029 664.263 81.2029C654.263 81.2029 651.73 83.0695 650.796 91.3362C650.13 96.8029 649.33 98.2695 645.596 100.803C639.196 105.07 628.93 108.67 605.996 114.67C582.263 120.936 571.863 125.603 559.33 135.203C544.796 146.27 539.063 147.603 531.996 141.736C526.263 136.803 523.996 131.736 515.996 105.203C507.863 78.0029 506.663 75.3362 500.93 71.8695C497.33 69.6029 494.13 69.2029 481.33 69.2029C469.33 69.2029 464.93 68.6695 461.463 66.8029C455.33 63.7362 455.063 62.1362 460.396 60.1362C467.863 57.4695 477.33 50.5362 477.33 47.7362C477.33 43.7362 486.663 34.4029 493.996 31.0695C501.863 27.3362 511.73 26.9362 522.663 29.8695C537.596 33.8695 546.663 31.8695 551.996 23.2029C557.33 14.5362 559.196 14.0029 586.53 13.0695C607.063 12.2695 613.463 11.6029 623.33 8.80287C639.73 4.26954 644.396 4.26954 647.996 8.80287Z" fill="#F0F0F0"/>
<path d="M1222.8 65.8694C1218.13 66.9361 1207.86 69.8694 1199.86 72.5361C1192 75.2028 1176.93 78.8028 1166.4 80.5361C1144.93 84.1361 1134.93 87.2028 1126.66 92.6694C1122 95.7361 1120.8 96.1361 1120.26 94.5361C1119.06 90.8028 1111.06 84.4028 1105.73 82.8028C1092.53 78.8028 1083.6 81.6028 1065.33 95.3361C1047.2 108.936 1044.4 109.869 998.663 115.203C982.93 116.936 967.463 118.803 964.396 119.203L958.93 120.003L959.063 115.336C959.196 108.803 955.33 104.003 946.663 99.6028C931.463 92.0028 907.196 91.8694 881.863 99.2028C861.996 105.069 829.063 120.003 817.063 128.803C802.13 139.603 800.796 154.403 813.996 162.536L818.396 165.203L813.463 170.269C810.796 173.069 806.53 177.869 803.863 180.936C795.863 190.403 789.863 188.536 776.396 172.536C766.53 160.803 761.33 157.203 753.996 157.203C745.863 157.203 744.796 159.069 745.596 172.269C746.396 184.669 749.463 192.269 755.73 197.336L759.596 200.536L754.53 205.336C748.663 210.669 747.996 214.403 751.463 221.736C754.93 228.803 753.33 232.003 741.996 239.736C730.93 247.469 727.996 251.603 727.996 260.136C727.996 267.469 731.863 273.869 738.13 276.803L742.796 279.069L738.396 280.669C735.33 281.736 734.13 282.936 734.263 284.669C734.663 288.669 727.73 301.336 716.13 317.736C696.796 344.936 691.196 361.736 692.396 388.536C693.463 413.869 700.93 433.203 716.263 449.869C732.13 467.203 741.863 468.536 768.396 457.069C773.596 454.803 781.33 452.669 785.463 452.269C792.53 451.603 793.196 451.736 795.33 455.069C798.53 459.869 804.396 462.803 811.463 462.936C816.796 462.936 817.33 463.203 816.53 465.603C814.93 470.536 815.863 492.803 817.863 500.803C819.063 505.069 821.863 513.203 824.13 518.669C830.13 532.536 830.13 544.936 824.13 567.869C818.53 589.069 817.596 602.403 820.53 617.203C824.396 636.136 831.463 649.203 847.596 666.936C853.463 673.469 857.996 680.403 861.996 688.669C870.53 706.536 878.396 711.603 891.596 708.003C904.663 704.536 912.663 696.403 920.93 678.536C928.93 661.069 932.13 655.469 940.663 644.536C951.73 630.269 953.33 626.803 955.463 612.536C957.463 599.336 958.53 597.603 970.93 590.403C982.263 583.736 985.063 569.203 978.663 549.203C971.73 527.469 974.796 516.536 995.463 488.536C1002 479.603 1009.6 468.269 1012.26 463.069C1018.4 451.469 1025.06 431.736 1025.6 423.869L1026 417.869L1014 418.269C1003.2 418.669 1001.6 418.403 997.33 415.603C994.796 413.869 990.663 409.603 987.996 406.269C982.796 399.336 967.463 372.003 968.263 371.203C968.53 370.936 972.93 377.336 977.996 385.603C989.73 404.536 991.73 406.536 998.663 406.536C1008.4 406.536 1043.73 390.936 1056.93 380.936C1069.33 371.469 1074.4 354.669 1068 344.136C1064.8 338.936 1064.8 338.936 1082.53 343.203C1118.13 351.869 1131.2 366.669 1140 408.136C1143.06 422.536 1145.33 427.069 1150.53 429.203C1155.6 431.203 1159.86 430.269 1165.2 425.869C1170.4 421.469 1171.86 416.403 1173.2 399.336C1174.53 383.736 1177.46 376.669 1185.6 369.869C1195.06 361.869 1208.4 360.003 1218.4 365.069C1225.6 368.803 1232.93 377.736 1234.4 384.403L1235.46 389.869L1241.46 389.603L1247.46 389.336L1255.2 402.536C1259.33 409.869 1263.46 416.269 1264.26 416.669C1265.06 417.203 1266.53 416.536 1267.6 415.069C1269.33 412.669 1269.6 412.803 1272.66 416.669C1276.4 421.469 1284.53 425.203 1291.46 425.203C1299.86 425.203 1307.33 419.469 1311.33 410.269C1314.13 403.336 1313.86 398.669 1310.13 391.469C1308 387.203 1307.6 385.203 1308.66 385.203C1311.6 385.203 1317.2 377.336 1318 372.136C1319.86 360.936 1322.8 357.336 1338.8 346.136C1349.46 338.803 1354 333.603 1358.26 324.136C1366.8 305.736 1364 282.536 1351.33 267.069C1345.86 260.536 1345.73 259.869 1349.33 259.869C1355.86 259.869 1359.73 263.736 1365.2 274.936C1372.93 291.336 1381.46 297.203 1390.53 292.536C1397.33 289.069 1398.8 284.403 1398.53 267.336C1398.13 248.403 1398.8 247.203 1414.4 239.336C1427.6 232.669 1433.33 227.336 1437.33 218.136C1443.2 205.069 1442.13 189.869 1434.66 178.003L1430.8 172.003L1434.4 169.336C1440 165.336 1452.26 161.736 1471.33 158.536C1480.8 156.936 1490.93 154.669 1493.73 153.736C1496.66 152.669 1499.46 151.869 1500 151.869C1500.53 151.869 1498.93 155.869 1496.4 160.669C1486 180.269 1490.66 199.336 1507.86 206.936C1514.93 210.003 1520.93 209.203 1526.66 204.269C1532.26 199.603 1534.13 195.603 1536.8 182.403C1541.46 159.203 1546 155.203 1572.8 150.536C1590.8 147.469 1601.06 143.069 1606 136.669C1615.33 124.269 1609.6 108.269 1593.06 101.203C1586.53 98.4028 1585.2 98.2694 1558.8 99.2028C1536.13 100.003 1529.33 99.7361 1520 98.0028C1499.6 94.1361 1467.86 85.3361 1439.86 75.8694C1424.66 70.6694 1410.53 66.5361 1408.13 66.5361C1401.86 66.5361 1398.66 70.5361 1398.66 78.5361C1398.66 85.0694 1398.66 85.0694 1393.86 86.0028C1382.8 88.0028 1355.33 84.1361 1317.33 75.2028C1303.73 72.0028 1287.6 68.4028 1281.33 67.2028C1265.46 64.0028 1233.73 63.3361 1222.8 65.8694ZM1276.66 71.3361C1283.33 72.5361 1301.33 76.4028 1316.8 80.0028C1351.6 88.1361 1367.33 90.5361 1385.06 90.5361C1401.73 90.5361 1404 89.0694 1404 78.5361C1404 73.6028 1404.53 71.6028 1406.13 70.9361C1407.33 70.5361 1421.86 74.8028 1438.4 80.4028C1472.4 91.7361 1510.53 101.869 1528.93 104.136C1538.4 105.336 1545.06 105.336 1559.06 104.003C1578.26 102.136 1585.73 102.669 1593.33 106.536C1603.46 111.736 1607.6 119.736 1604.53 128.669C1601.33 138.136 1593.2 142.269 1570.66 146.003C1557.2 148.136 1547.86 151.603 1542.93 156.269C1538 160.803 1535.33 167.336 1532 181.869C1529.46 192.936 1528.26 195.869 1524.66 199.469C1519.73 204.403 1514.4 205.203 1508.26 202.003C1491.46 193.203 1491.6 173.069 1508.66 149.469C1514.93 140.669 1513.6 137.869 1505.86 143.069C1498.26 148.003 1490.8 150.269 1469.73 153.869C1443.46 158.403 1436.13 161.069 1427.73 168.936L1424.13 172.269L1427.6 176.403C1436.66 187.069 1438.8 203.869 1432.8 216.536C1428.8 225.203 1425.06 228.403 1411.06 235.736C1394.66 244.403 1394 245.736 1394 265.736C1394 284.536 1392.26 289.203 1385.33 289.203C1379.6 289.203 1374.93 284.403 1368.8 271.869C1362.8 259.469 1358.26 255.603 1349.86 255.603C1345.6 255.603 1340 258.803 1340 261.203C1340 261.736 1342.4 264.669 1345.33 267.736C1360.4 283.469 1362.93 307.736 1351.6 326.669C1348.4 332.003 1343.86 336.403 1334 343.869C1319.2 355.069 1315.2 360.003 1313.86 368.669C1312.93 375.469 1308.93 381.203 1305.33 381.203C1302.13 381.203 1297.33 373.336 1297.33 368.003C1297.33 362.669 1293.86 362.403 1291.86 367.469C1289.46 373.736 1291.46 379.336 1298.13 384.669C1305.33 390.669 1308 395.336 1308 402.136C1308 412.136 1300.13 420.269 1290.53 420.136C1283.46 420.003 1277.2 416.269 1274.26 410.136C1271.6 404.669 1270.53 404.269 1268 407.203C1267.06 408.269 1265.86 409.203 1265.46 409.203C1264.93 409.203 1261.2 403.469 1257.2 396.536L1250 383.736L1244.4 384.536C1239.73 385.203 1238.66 384.936 1238.66 383.203C1238.66 379.869 1234.8 372.936 1230.13 368.136C1217.33 354.403 1196.66 353.869 1182.13 366.669C1172.8 374.803 1169.33 383.336 1168.13 401.069C1166.93 416.803 1165.2 421.469 1159.33 424.136C1155.33 425.869 1149.86 424.669 1148.66 421.603C1148.13 420.269 1145.73 411.336 1143.33 401.736C1137.73 379.203 1132.4 368.136 1122 357.736C1110.26 345.869 1104.26 343.469 1064.53 334.003C1047.6 330.003 1032.93 324.136 1019.06 315.736C1013.06 312.136 1007.46 309.203 1006.8 309.203C1004.4 309.203 1002.4 314.803 1003.06 319.336C1003.46 321.869 1005.06 325.736 1006.66 327.869C1011.46 334.669 1016.26 336.269 1035.06 337.336C1047.73 338.003 1053.33 338.936 1057.06 340.803C1063.46 344.136 1067.06 350.803 1066 357.736C1063.86 372.403 1052.4 381.603 1018.26 395.736C1001.33 402.803 997.063 403.603 993.73 400.269C990.53 397.069 940.263 316.803 937.863 310.936C935.463 305.336 935.596 298.536 937.996 295.336C939.063 293.869 939.996 292.269 939.996 291.736C939.996 290.136 921.463 279.069 910.13 273.869L899.73 269.069L892.53 274.536L885.463 279.869L874.396 263.869C868.263 255.069 862.396 247.869 861.196 247.869C857.596 247.869 851.863 255.203 851.063 260.669L850.396 265.869L839.996 255.469C827.196 242.936 815.996 237.069 804.93 237.069C793.33 237.069 788.263 240.003 773.463 255.336C759.73 269.736 754.263 273.203 745.996 273.203C739.73 273.203 736.53 271.336 733.996 266.536C729.596 258.003 732.396 252.136 745.063 243.469C758.396 234.403 761.196 229.069 756.663 221.203C751.996 213.069 755.596 207.203 767.33 203.869C774.13 202.003 775.596 198.536 769.463 198.536C763.996 198.536 757.063 193.336 753.73 186.536C749.863 178.936 749.33 162.936 752.93 161.603C756.663 160.136 764.263 165.469 772.93 175.869C789.196 195.336 798.263 196.269 811.33 179.869C817.463 172.136 819.463 170.536 822.663 170.536C825.596 170.536 827.063 171.603 829.463 175.469C834.13 183.469 838.796 187.736 843.596 188.669C852.13 190.269 862.796 184.269 872.53 172.003C880.53 162.003 885.863 158.269 892.396 157.736C902.396 156.803 902.53 151.603 892.663 152.003C881.996 152.669 873.863 143.869 875.196 133.336C876.396 124.269 872.396 121.603 863.996 125.869C857.863 129.069 855.996 134.136 855.996 147.203C855.996 161.203 853.996 165.869 847.33 167.736C838.796 170.003 820.93 163.469 812.396 155.069C806.53 149.203 809.996 139.203 820.396 132.003C833.596 122.936 866.263 108.669 885.73 103.203C914.263 95.3361 945.33 98.4028 952.93 110.003C956.263 115.203 953.996 120.269 947.996 121.203C941.063 122.136 941.73 125.869 948.663 125.736C957.33 125.336 1033.33 115.869 1039.86 114.269C1048.4 112.269 1056.13 108.003 1070 98.0028C1084.26 87.6028 1092.26 84.6694 1100.93 86.5361C1104.13 87.3361 1108.26 88.9361 1110.13 90.1361C1114.4 92.8028 1117.73 99.2028 1116.66 102.536C1115.33 106.936 1118.93 107.203 1122.53 103.069C1130.53 93.7361 1141.06 89.4694 1164.4 85.7361C1180.8 83.2028 1188.13 81.4694 1207.33 75.2028C1230.66 67.6028 1248.53 66.6694 1276.66 71.3361ZM870.263 132.669C869.196 138.136 871.73 144.936 876.93 150.669L881.73 156.003L877.596 159.603C875.33 161.603 871.063 166.136 868.13 169.736C857.463 182.936 845.196 187.603 839.063 180.803C837.596 179.203 835.73 176.669 834.93 175.069C833.463 172.403 833.73 172.269 839.996 172.936C848.13 173.736 853.73 171.469 857.73 166.003C860.263 162.403 860.663 160.403 860.396 150.003C859.996 135.203 862.396 129.736 869.196 129.336C870.396 129.203 870.796 130.269 870.263 132.669ZM820.13 245.869C824.663 248.136 831.73 253.869 839.063 261.469C848.663 271.203 850.93 272.936 851.596 270.936C852.13 269.603 853.063 268.136 853.863 267.603C854.663 267.069 855.33 264.803 855.463 262.403C855.596 260.136 856.93 257.069 858.396 255.603C860.93 252.936 861.063 253.069 872.13 269.069C878.263 277.869 884.13 285.203 885.196 285.203C886.13 285.203 889.863 282.669 893.463 279.736L900.13 274.269L913.73 281.069C932.663 290.536 933.73 291.469 931.863 296.936C931.063 299.336 930.796 302.936 931.33 304.936C932.13 308.536 932.13 308.536 927.063 303.603C919.863 296.536 911.596 293.469 896.663 291.869C882.396 290.403 879.463 290.803 870.53 295.469C863.063 299.336 861.863 299.069 843.33 291.069C830.13 285.336 829.996 285.069 825.996 277.603C818.263 262.669 805.73 260.269 778.796 268.403C770.663 270.803 763.996 272.803 763.996 272.669C763.996 272.536 769.596 266.536 776.396 259.203C783.33 251.736 790.93 245.069 793.996 243.603C801.063 240.269 810.663 241.203 820.13 245.869ZM812.93 270.536C817.463 272.536 819.33 274.536 822.53 280.936L826.53 288.803L840.93 295.203C859.463 303.336 865.463 304.136 873.996 299.203C879.996 295.603 880.796 295.469 892.396 296.269C917.463 298.003 925.463 303.469 931.996 323.336C934.396 330.269 936.796 334.003 944.13 341.869C951.73 350.136 954.93 355.203 962.663 370.803C984.263 415.203 994.396 425.469 1014.4 423.469C1018.13 423.069 1021.33 423.203 1021.33 423.603C1021.33 424.136 1020.13 429.069 1018.66 434.536C1014.4 450.003 1005.46 466.936 991.863 485.203C970.263 514.536 967.196 525.203 973.863 549.469C979.863 571.603 977.996 581.736 966.396 587.869C954.396 594.403 952.663 597.203 950.663 612.803C949.196 623.869 946.53 629.736 938.396 640.003C929.196 651.336 924.93 658.269 918.663 672.136C915.463 679.203 910.796 687.736 908.396 691.069C900.263 702.403 883.596 707.469 875.463 701.069C873.596 699.603 869.33 692.803 866.13 686.136C861.996 677.469 857.33 670.669 850.396 662.936C831.596 642.003 825.33 627.603 824.396 603.869C823.73 589.603 823.996 587.203 828.53 569.336C835.196 542.669 835.196 533.736 828.13 515.469C819.996 494.269 818.396 482.536 821.463 466.003C823.063 456.936 821.996 454.936 816.93 457.336C811.463 459.869 804.663 457.736 798.53 451.603C793.33 446.269 793.063 446.136 785.996 447.069C782.13 447.469 771.996 450.536 763.596 453.869C740.263 462.936 733.463 461.869 719.596 446.536C704.53 429.869 697.063 409.469 696.93 384.536C696.796 359.869 701.73 346.403 720.263 320.136C726.13 312.003 732.663 301.469 734.796 296.803C737.063 292.269 739.33 287.603 739.863 286.536C740.396 285.469 746.53 282.936 753.463 280.803C802.13 266.269 803.196 266.136 812.93 270.536ZM1029.06 326.803L1042 333.336L1031.2 332.803C1015.6 331.869 1008 327.069 1008 318.136V314.403L1012.13 317.336C1014.4 318.936 1022 323.203 1029.06 326.803ZM942.663 328.936C948.663 338.269 949.33 340.136 945.33 336.536C941.996 333.469 937.996 327.069 936.663 322.536C935.33 318.136 936.263 319.069 942.663 328.936Z" fill="#F0F0F0"/>
<path d="M204.663 76.4028C201.063 78.1362 196.53 81.0695 194.796 82.9362C190.663 87.4695 191.863 89.0695 204.53 95.3362L213.996 100.003L194.663 99.3362C183.996 98.9362 159.196 98.2695 139.33 97.7362C108.663 97.0695 101.73 96.5362 91.9962 94.1362C76.3962 90.1362 50.6629 90.2695 35.4629 94.4028C15.5962 99.7362 -2.53713 110.27 4.39621 112.536C5.19621 112.803 11.3295 114.67 17.9962 116.536C31.5962 120.67 31.3295 121.603 15.3295 123.603C-1.20379 125.87 -4.00379 131.336 5.19621 144.136C8.66287 148.936 10.2629 152.403 9.86287 154.136C9.19621 156.403 10.3962 157.07 18.1295 159.47L27.0629 162.136L15.5962 172.003C9.19621 177.47 3.99621 182.27 3.99621 182.936C3.99621 185.203 11.9962 186.803 21.7295 186.27C31.5962 185.603 33.0629 185.07 56.3962 173.47C69.7295 166.803 82.9295 160.67 85.5962 159.87C93.9962 157.336 107.863 158.003 117.463 161.47C139.33 169.47 167.463 195.07 178.53 216.803C181.063 222.003 184.663 233.603 188.13 248.67C194.663 276.936 200.263 293.87 210.13 314.536C220.263 335.736 233.33 357.336 235.863 356.936C238.663 356.403 240.263 347.603 239.596 337.47C239.196 332.936 239.196 329.203 239.33 329.203C239.596 329.203 241.463 334.136 243.463 340.136C254.663 374.536 261.73 381.87 296.663 395.87C330.396 409.47 336.13 413.47 345.863 430.27C354.396 445.203 359.463 449.203 369.596 449.203C372.796 449.203 376.263 448.67 377.33 447.87C379.996 446.27 381.33 448.536 381.33 454.936C381.33 460.803 380.663 462.136 371.33 476.536C361.596 491.336 358.53 500.27 357.73 516.536C356.53 538.403 361.196 552.003 376.663 572.536C389.33 589.47 392.263 596.136 393.063 611.07C393.73 625.87 391.596 637.47 382.396 667.203C358.663 744.27 348.53 810.27 357.063 831.87C360.93 841.736 366.796 848.536 375.196 852.936C384.53 857.87 400.263 858.003 409.33 853.336C415.863 850.003 421.33 845.47 421.33 843.47C421.33 842.803 419.196 839.87 416.53 836.936C410.53 830.27 408.13 824.67 407.063 814.536C405.996 803.87 408.263 793.203 415.996 773.203C419.596 764.003 423.33 753.203 424.263 749.336C426.13 742.136 426.13 742.136 433.063 740.403C446.13 737.07 460.396 727.603 469.863 716.003C472.93 712.403 478.13 707.336 481.463 704.67C494.93 694.403 505.73 678.536 511.996 659.87C515.863 648.27 519.463 644.803 533.863 639.203C559.063 629.336 566.663 619.603 569.996 592.67C572.263 574.27 573.463 571.07 583.33 559.203C592.53 548.003 594.396 544.403 595.463 536.803C597.063 525.47 587.863 512.536 573.33 505.336C569.33 503.336 560.13 499.336 552.796 496.536C536.796 490.27 531.063 485.336 518.93 467.336C507.996 451.07 501.996 446.536 477.996 437.07C455.996 428.403 454.663 427.736 443.063 418.936C435.463 413.07 432.13 411.336 427.196 410.803C423.73 410.403 419.863 409.07 418.53 407.736C413.996 403.203 407.196 405.47 395.863 415.47C386.663 423.603 381.596 425.87 375.063 424.536C367.73 423.203 363.063 417.47 361.863 408.136C360.53 397.203 359.463 395.07 350.663 386.27C343.996 379.736 342.663 377.603 342.663 373.87C342.663 370.67 343.463 368.936 345.33 367.87C350.93 364.936 347.063 358.003 338.93 356.403C335.996 355.87 331.996 356.536 326.663 358.403C315.73 362.403 309.596 361.736 305.863 356.27C301.596 349.87 299.33 336.403 301.33 329.203C304.263 318.136 315.33 312.403 327.196 315.736C338.93 318.936 346.796 329.203 353.463 349.87C356.796 360.27 358.796 364.27 362.663 368.136C368.263 373.87 375.196 375.736 380.796 372.936C386.93 370.003 387.596 367.336 383.73 362.67C375.463 352.936 375.33 339.203 383.063 323.603C388.13 313.336 435.196 251.47 442.93 244.803C448.396 240.136 454.13 240.136 465.863 244.536C477.73 248.936 482.796 248.936 488.263 244.003C491.996 240.67 492.53 239.336 492.53 233.603C492.53 221.87 484.13 213.203 470.796 211.07C466.93 210.403 465.73 209.736 466.93 209.07C469.196 207.47 477.996 205.07 485.063 203.87C490.663 202.936 490.93 203.07 493.33 207.736C498.13 217.203 506.796 222.536 517.463 222.536C529.33 222.536 537.996 214.536 534.796 206.403C532.663 200.536 517.596 181.603 508.263 173.07C500.93 166.27 485.463 155.203 473.863 148.403C471.73 147.203 472.53 146.67 479.196 144.536C487.063 142.003 500.53 134.136 503.863 130.136C506.263 127.07 504.796 125.47 491.463 116.67C476.796 106.936 461.063 99.3362 444.93 93.8695C421.996 86.2695 411.196 84.5362 386.663 84.5362C365.73 84.5362 364.263 84.6695 357.33 88.0028C353.33 89.8695 345.463 94.8028 339.73 98.8028C329.063 106.536 319.73 110.003 313.196 108.536C309.73 107.736 309.33 107.07 309.33 102.67C309.33 97.7362 306.396 92.4028 301.33 88.1362C296.663 84.1362 289.33 82.2695 274.796 81.2028C266.263 80.5362 252.93 78.5362 245.063 76.6695C226.263 72.1362 213.73 72.1362 204.663 76.4028ZM247.33 81.8695C254.663 83.6028 266.396 85.4695 273.33 85.8695C290.396 87.0695 294.663 88.2695 299.996 93.8695C303.596 97.6028 304.53 99.7362 304.663 104.003C304.796 111.07 307.73 113.203 316.796 113.203C325.33 113.203 332.663 110.136 343.996 101.87C348.663 98.2695 355.863 93.8695 359.996 92.0028C366.93 88.8028 368.396 88.5362 386.663 88.6695C415.596 88.9362 441.063 95.0695 467.33 108.136C478.796 113.87 498.663 126.536 498.663 128.003C498.663 129.736 485.73 137.203 477.996 139.87C467.73 143.47 464.53 143.203 449.73 138.536C442.93 136.27 436.13 134.536 434.663 134.536C430.53 134.536 420.663 124.536 416.796 116.536C413.063 108.403 409.996 107.203 405.33 111.87C403.196 114.003 402.663 116.003 402.93 121.336C403.196 127.336 402.796 128.536 399.596 131.336C394.396 135.736 388.13 136.536 373.196 134.536C357.73 132.536 351.73 133.603 345.463 139.87C339.996 145.336 339.196 150.403 342.53 156.936C350.13 172.003 371.996 180.67 389.596 175.87C402.53 172.27 414.13 159.736 418.263 144.936C420.13 138.27 420.93 137.203 423.596 137.203C425.463 137.203 429.463 138.803 432.796 140.67C439.463 144.536 450.53 147.87 457.196 147.87C463.463 147.87 483.063 158.403 495.863 168.803C507.596 178.136 516.13 187.203 524.93 199.603C531.996 209.336 531.863 212.936 524.796 216.403C518.93 219.203 515.33 219.07 508.53 216.003C502.263 213.203 497.863 208.136 496.663 202.27L495.73 198.136L487.463 198.936C473.863 200.003 450.396 209.603 452.53 213.07C452.93 213.603 457.596 214.536 462.93 215.07C479.196 216.536 487.996 222.936 487.996 233.07C487.996 237.336 483.063 243.87 479.996 243.87C479.063 243.87 473.063 242.003 466.396 239.736C453.063 235.07 447.996 235.203 441.33 239.87C434.13 244.936 384.53 310.003 378.263 322.403C373.196 332.67 372.663 334.403 372.796 343.736C372.796 351.47 373.463 355.203 375.73 359.47C377.33 362.536 379.196 365.47 379.996 365.87C382.53 367.47 379.863 369.203 375.33 369.203C367.463 369.203 363.33 364.003 357.463 346.936C351.73 330.27 345.996 321.203 337.463 315.203C332.263 311.603 330.796 311.203 320.93 311.203C311.463 311.203 309.33 311.603 305.463 314.403C299.596 318.67 295.996 326.67 295.996 336.003C295.996 352.67 303.996 366.536 313.863 366.536C316.396 366.536 321.596 365.336 325.33 363.87C329.063 362.403 334.13 361.203 336.663 361.203C341.33 361.203 343.863 363.07 341.33 364.536C338.796 366.136 337.196 372.003 338.13 376.803C338.796 380.136 341.463 384.003 347.33 389.736C355.463 398.003 357.33 401.87 357.33 410.136C357.33 419.736 367.196 429.203 377.596 429.603C384.13 429.87 390.663 426.403 402.396 416.536C410.53 409.603 413.996 408.67 411.996 413.87C410.663 417.47 412.263 423.87 414.663 423.87C415.463 423.87 416.663 422.403 417.33 420.536C418.796 416.67 424.396 414.136 428.53 415.336C429.996 415.736 435.596 419.336 440.663 423.203C451.996 431.603 453.596 432.536 475.33 441.203C501.196 451.47 506.663 455.736 517.996 474.27C526.13 487.47 535.063 494.803 550.263 500.67C568.663 507.736 575.863 511.47 581.73 517.07C588.396 523.336 590.663 527.736 590.663 534.803C590.663 541.336 588.263 545.736 578.396 557.603C569.196 568.67 567.063 574.003 565.463 590.403C562.663 617.336 555.063 626.536 527.463 636.536C517.33 640.27 511.33 646.403 507.863 656.936C503.196 671.603 496.13 683.603 487.33 692.403C457.73 721.736 451.063 727.603 442.663 731.603C437.863 733.87 431.863 736.003 429.196 736.536C422.53 737.736 422.13 738.27 419.463 747.87C418.263 752.67 414.53 763.47 411.33 772.003C404.13 790.936 402.53 797.736 402.53 809.47C402.53 821.47 405.463 831.336 411.196 838.136C416.53 844.27 416.396 844.67 406.53 849.07C402.796 850.803 397.863 851.87 392.663 851.87C376.93 851.87 365.196 842.936 360.663 827.47C354.13 805.336 365.596 736.27 387.33 667.87C395.33 642.403 397.863 629.736 397.863 615.203C397.863 596.003 395.33 589.87 376.13 563.336C368.13 552.536 364.396 543.07 362.396 529.336C359.996 511.603 365.463 491.47 376.796 476.67C386.13 464.403 388.396 455.87 384.663 447.203C382.396 441.47 379.73 440.27 375.73 443.07C367.996 448.536 359.463 443.603 350.263 428.536C346.663 422.67 341.596 415.603 338.93 412.936C333.33 407.07 318.53 399.07 302.53 393.203C268.13 380.536 259.33 372.27 249.996 343.87C245.063 328.803 239.73 318.27 233.996 312.536C229.596 308.136 225.33 306.403 225.33 308.936C225.33 309.603 227.196 313.87 229.596 318.536C233.063 325.47 233.863 329.07 234.263 337.736L234.796 348.536L232.13 345.203C227.596 339.736 207.196 297.47 202.796 284.536C198.796 272.403 194.13 254.67 189.996 235.47C185.596 215.203 172.263 194.67 152.663 178.27C133.73 162.27 119.596 155.07 104.53 153.603C91.0629 152.403 81.8629 155.07 57.9962 167.336C46.2629 173.336 33.3295 179.203 29.3295 180.403C21.4629 182.803 13.3295 183.203 13.3295 181.336C13.3295 180.67 18.1295 176.003 23.9962 171.07C29.8629 166.136 34.5295 161.47 34.2629 160.67C33.9962 159.87 29.5962 158.003 24.5295 156.403C17.9962 154.27 15.1962 152.803 14.7962 151.07C14.5295 149.603 12.2629 145.736 9.72954 142.27C6.92954 138.403 5.32954 134.803 5.59621 132.936C5.99621 129.736 7.99621 129.07 24.3962 127.203C29.0629 126.536 31.1962 125.603 32.7962 123.07C33.9962 121.336 34.6629 119.07 34.2629 118.136C33.8629 117.203 28.7962 114.936 22.7962 113.07C16.9295 111.336 11.9962 109.47 11.9962 108.936C11.9962 107.203 31.7295 100.003 42.5295 97.7362C56.1295 95.0695 80.9295 95.7362 91.3295 99.0695C96.7962 100.936 110.796 101.603 167.996 103.203C206.53 104.403 238.796 104.936 239.73 104.536C243.863 102.936 239.863 100.67 229.196 98.5362C216.796 96.0028 198.263 88.2695 199.063 86.0028C199.73 83.8695 207.73 79.4695 213.196 78.4028C219.863 76.9362 231.596 78.1362 247.33 81.8695ZM412.13 118.136C412.93 120.27 414.93 123.736 416.796 126.136C420.663 131.203 420.663 131.336 417.33 132.27C415.196 132.803 414.663 134.136 414.663 138.136C414.663 144.803 407.996 158.536 402.396 163.203C387.596 175.736 367.596 175.47 353.063 162.67C343.996 154.67 343.196 146.27 351.196 141.336C356.263 138.136 362.93 137.87 377.73 140.003C389.996 141.87 397.33 140.136 403.596 133.87C407.463 130.003 407.996 128.67 407.996 122.003C407.996 114.003 409.863 112.27 412.13 118.136Z" fill="#F0F0F0"/>
<path d="M1454.53 180.67C1453.06 182.403 1452.66 189.07 1452.53 211.07C1452.26 247.87 1449.46 266.67 1442.93 273.603C1440.53 276.136 1435.86 278.403 1428.53 280.67C1422.53 282.403 1415.6 285.336 1413.2 286.936C1400 295.736 1399.6 318.136 1412.66 320.67C1422.66 322.536 1446.8 306.403 1453.6 293.336C1456.8 287.336 1457.33 284.67 1457.33 276.003C1457.33 262.936 1458.93 260.536 1468.93 258.536C1478.8 256.403 1482.66 252.536 1482.66 244.936C1482.53 237.47 1480.53 235.07 1471.2 231.47C1465.33 229.203 1463.2 227.603 1462.93 225.47C1462.66 223.603 1463.2 222.536 1464.4 222.536C1465.46 222.536 1467.33 221.336 1468.66 219.87C1470.66 217.736 1470.93 215.87 1470.26 208.936C1469.06 196.936 1467.2 191.336 1462.66 186.536C1460.53 184.27 1458.93 181.736 1459.06 180.936C1459.6 178.536 1456.53 178.403 1454.53 180.67ZM1463.86 199.47C1464.66 202.536 1465.33 207.736 1465.33 211.07C1465.33 216.27 1464.93 217.203 1461.46 218.936L1457.73 220.803L1456.8 205.736C1456.26 197.336 1456.26 189.87 1456.8 189.07C1458.13 186.803 1462.26 192.67 1463.86 199.47ZM1468.66 235.736C1482.8 239.603 1481.86 251.603 1467.33 253.87C1462.8 254.536 1459.73 256.003 1457.06 258.67L1453.06 262.536L1453.86 258.936C1455.6 250.27 1457.33 237.47 1457.33 232.936V228.003L1460.53 231.203C1462.26 232.936 1465.86 234.936 1468.66 235.736ZM1452.4 277.47C1451.86 289.87 1448 296.536 1436.93 304.803C1416.93 319.47 1408 319.736 1408 305.603C1408 299.336 1411.86 292.67 1417.2 289.87C1419.46 288.803 1425.86 286.403 1431.6 284.536C1442 281.336 1449.06 276.136 1451.06 270.136C1452.53 266.003 1452.93 267.736 1452.4 277.47Z" fill="#F0F0F0"/>
<path d="M1349.6 440.536C1339.6 448.136 1333.46 455.603 1336.13 457.336C1337.46 458.27 1339.2 457.203 1342 454.003C1347.06 448.136 1356 441.07 1357.33 441.87C1357.86 442.136 1358.66 444.136 1359.06 446.136C1359.46 448.27 1362 453.336 1364.53 457.736C1369.86 466.403 1370.26 468.803 1367.2 474.67C1365.6 477.736 1365.33 480.803 1366 486.936C1366.8 494.67 1366.66 495.47 1363.46 498.403C1361.2 500.536 1358 501.736 1353.33 502.27C1336 503.87 1318.8 488.67 1318.66 471.736V465.47L1324.66 464.67C1328.4 464.003 1330.66 463.07 1330.66 461.87C1330.66 459.07 1329.33 458.803 1321.33 460.403L1314 461.87L1313.6 467.603C1312.93 476.403 1316.53 486.536 1322.8 493.736C1335.06 507.603 1355.46 511.603 1366.13 502.27C1371.2 497.736 1372.66 492.67 1370.8 485.87C1369.73 482.003 1370 480.003 1372.26 475.07C1375.33 467.87 1374.93 465.603 1368.8 455.336C1366.26 451.203 1363.46 444.803 1362.66 441.203C1361.73 437.47 1360.26 434.536 1359.33 434.536C1358.4 434.536 1354 437.203 1349.6 440.536Z" fill="#F0F0F0"/>
<path d="M1246.4 447.336C1244.66 449.069 1245.2 457.069 1247.33 461.203C1248.4 463.336 1253.46 468.403 1258.66 472.536C1266.8 479.069 1268.53 481.203 1273.33 491.469C1279.06 503.336 1291.33 518.136 1298.93 522.003C1308 526.669 1317.33 522.269 1317.33 513.069C1317.33 506.136 1310.26 492.669 1303.2 486.269C1299.86 483.069 1290.93 474.536 1283.46 467.069C1275.33 459.069 1267.46 452.536 1263.6 450.669C1256.8 447.336 1248 445.603 1246.4 447.336ZM1261.2 454.803C1264.8 456.536 1272.93 463.336 1280.8 471.069C1288.26 478.536 1296.8 486.803 1299.73 489.469C1305.46 494.669 1311.06 504.136 1312.53 511.336C1313.2 514.403 1312.8 515.869 1310.8 517.736C1306.8 521.469 1302.13 519.469 1292.53 510.269C1286 504.003 1282.53 499.203 1277.73 489.469C1272.13 478.269 1270.13 475.736 1262.26 469.336C1245.46 455.736 1244.93 446.936 1261.2 454.803Z" fill="#F0F0F0"/>
<path d="M1440 477.47C1427.6 483.87 1428.13 497.203 1441.06 502.67C1458.4 510.003 1461.06 511.736 1470.13 520.536C1484.53 534.67 1492.53 552.67 1491.73 569.47L1491.33 577.87L1487.33 572.136C1477.06 557.47 1474.93 555.07 1469.33 552.136C1457.2 545.87 1448 549.736 1411.73 576.003C1380.13 599.07 1373.33 605.47 1366.93 618.403C1362.13 628.27 1362 628.67 1362 643.736C1362.13 659.07 1362.13 659.336 1368.4 674.803C1373.73 688.136 1374.66 691.603 1374.66 699.603C1374.66 710.403 1376 712.136 1385.73 714.67C1393.86 716.67 1405.86 715.603 1413.46 712.27C1416.8 710.803 1423.6 705.87 1428.66 701.336C1441.86 689.603 1446.53 687.336 1458.26 687.336C1466.66 687.47 1469.33 688.136 1478.26 692.536C1487.2 696.803 1491.2 700.136 1506.26 715.203C1526.4 735.47 1528.26 736.536 1544.53 735.603C1556 734.936 1566 731.47 1571.73 726.136C1579.33 719.07 1583.2 705.203 1583.06 685.203C1582.8 667.736 1579.6 654.536 1571.2 637.203C1565.33 625.203 1563.86 623.47 1542.8 602.536C1530.53 590.403 1518.66 578.003 1516.26 574.936C1510.13 567.07 1505.2 555.736 1504.4 547.336L1503.6 540.003L1511.33 539.603C1516.13 539.336 1519.33 538.536 1519.73 537.47C1520 536.403 1518.8 535.87 1516 535.87C1513.6 535.87 1512.13 535.336 1512.66 534.536C1514.53 531.603 1518.4 533.603 1525.46 541.336C1532.53 548.803 1533.33 549.336 1538.13 548.936C1544.4 548.403 1547.6 543.87 1546.13 537.736C1544.26 530.003 1510 500.936 1487.33 488.003C1473.46 480.003 1462.93 476.003 1453.73 475.07C1447.33 474.403 1445.06 474.803 1440 477.47ZM1472.93 485.736C1486.53 492.27 1505.46 504.936 1521.46 518.403C1537.6 531.87 1541.6 536.536 1541.06 541.07C1540.4 546.803 1535.2 544.936 1526.8 535.87C1522.66 531.47 1518.13 527.87 1516.93 527.87C1513.86 527.87 1508.93 530.403 1507.6 532.67C1507.06 533.736 1505.33 534.536 1503.86 534.536C1494.53 534.536 1499.73 561.47 1512.26 577.603C1514.53 580.67 1526.53 593.07 1538.8 605.203C1560 626.136 1561.33 627.87 1567.2 639.87C1575.86 657.87 1578 666.536 1578 686.536C1578 711.87 1573.6 721.87 1559.73 727.87C1551.2 731.603 1532.66 732.136 1527.73 728.936C1526 727.736 1517.06 719.336 1508 710.27C1493.86 696.003 1489.73 692.803 1480.8 688.403C1470.8 683.47 1469.33 683.203 1458.13 683.203C1443.33 683.203 1439.6 684.803 1426.8 696.67C1414.8 707.87 1408.8 710.536 1396 710.536C1390.4 710.536 1384.53 709.736 1382.66 708.803C1379.73 707.336 1379.33 706.27 1379.73 701.203C1380.26 693.336 1378 684.67 1371.86 670.003C1363.6 650.003 1363.6 634.536 1372.26 618.403C1377.73 608.136 1384.8 601.603 1414.26 580.136C1444.53 558.003 1449.86 555.203 1460.13 555.203C1469.06 555.203 1471.33 556.803 1478.4 567.87C1484.4 577.336 1490.53 583.87 1493.46 583.87C1496.93 583.87 1498.13 573.603 1496.26 560.67C1492.4 533.736 1472.53 509.336 1446.8 500.003C1437.86 496.803 1435.06 493.336 1436.53 487.336C1438.8 478.27 1455.6 477.47 1472.93 485.736Z" fill="#F0F0F0"/>
<path d="M1018.66 556.136C1015.2 557.87 1011.2 561.47 1009.2 564.536C1007.2 567.47 1004.13 570.27 1002.4 570.67C1000.8 571.07 999.463 572.136 999.73 573.07C999.863 574.003 998.13 576.27 995.863 578.27C988.53 584.403 987.73 588.003 988.663 613.736C989.596 642.136 989.996 644.136 994.13 649.203C1001.2 657.47 1013.33 652.936 1018.93 640.003C1020.4 636.67 1023.6 625.736 1026.26 615.87C1029.86 601.47 1031.06 594.403 1031.6 580.536C1032.66 553.736 1030.66 550.003 1018.66 556.136ZM1026.93 566.136C1028.8 591.47 1018.4 638.003 1009.2 645.736C1004 650.136 1000.93 650.136 997.463 645.736C995.063 642.67 994.663 640.27 994.663 630.27C994.663 623.736 993.996 612.803 993.196 606.003C991.73 594.67 991.863 593.07 994.13 588.403C995.463 585.603 998.93 581.736 1001.73 579.87C1004.53 577.87 1008.93 573.336 1011.46 569.47C1015.86 563.07 1021.2 558.67 1024.93 558.536C1025.86 558.536 1026.66 561.603 1026.93 566.136Z" fill="#F0F0F0"/>
<path d="M1688.93 737.336C1686.93 738.803 1684.8 742.403 1683.86 745.603C1683.06 748.67 1680.53 753.336 1678.13 755.87C1671.06 763.47 1665.33 772.136 1665.33 775.336C1665.33 779.603 1671.33 783.87 1677.2 783.87C1691.46 783.736 1704.13 769.736 1706.26 751.87C1708 737.603 1698.53 729.736 1688.93 737.336ZM1699.2 740.67C1703.73 745.07 1700.8 761.07 1693.86 770.136C1689.6 775.736 1684.13 778.536 1677.33 778.536C1667.33 778.536 1668.66 773.336 1682.13 758.67C1688.93 751.336 1690.26 749.07 1689.73 746.27C1689.2 743.736 1689.86 742.27 1692.13 740.67C1696 738.003 1696.66 738.003 1699.2 740.67Z" fill="#F0F0F0"/>
</svg>
